<svg width="97" height="23" viewBox="0 0 97 23" fill="none" xmlns="http://www.w3.org/2000/svg">
<path d="M10.7354 2.91797C15.1682 2.91797 18.8975 6.68379 18.8975 11.5C18.8975 16.3162 15.1682 20.082 10.7354 20.082C6.3025 20.082 2.57324 16.3162 2.57324 11.5C2.57324 6.68379 6.3025 2.91797 10.7354 2.91797Z" stroke="#6E768A" stroke-width="3.96094"/>
<path d="M48.7715 2.91797C53.2043 2.91797 56.9336 6.68379 56.9336 11.5C56.9336 16.3162 53.2043 20.082 48.7715 20.082C44.3386 20.082 40.6094 16.3162 40.6094 11.5C40.6094 6.68379 44.3386 2.91797 48.7715 2.91797Z" stroke="#6E768A" stroke-width="3.96094"/>
<path d="M86.8057 2.91797C91.2385 2.91797 94.9678 6.68379 94.9678 11.5C94.9678 16.3162 91.2385 20.082 86.8057 20.082C82.3728 20.082 78.6436 16.3162 78.6436 11.5C78.6436 6.68379 82.3728 2.91797 86.8057 2.91797Z" stroke="#6E768A" stroke-width="3.96094"/>
</svg>
