<svg width="100" height="15" viewBox="0 0 100 15" fill="none" xmlns="http://www.w3.org/2000/svg">
<g clip-path="url(#clip0_23_2322)">
<path fill-rule="evenodd" clip-rule="evenodd" d="M10.4971 5.5383C10.3721 5.53956 10.2499 5.50156 10.1476 5.42967C10.0453 5.35778 9.96817 5.25561 9.92701 5.13757L8.60457 1.15933C8.56251 1.04207 8.48525 0.940655 8.38336 0.868961C8.28147 0.797267 8.15993 0.758789 8.03534 0.758789C7.91076 0.758789 7.78922 0.797267 7.68733 0.868961C7.58544 0.940655 7.50818 1.04207 7.46611 1.15933L6.13639 5.13028C6.09523 5.24833 6.01808 5.35049 5.9158 5.42238C5.81352 5.49427 5.69127 5.53227 5.56625 5.53102H1.25832C1.13438 5.52807 1.01271 5.5646 0.910883 5.63532C0.809056 5.70604 0.732345 5.8073 0.691827 5.92447C0.652196 6.04133 0.651546 6.16789 0.689975 6.28514C0.728404 6.4024 0.803837 6.50402 0.904946 6.57476L4.40229 9.05022C4.5023 9.11978 4.57721 9.21972 4.61593 9.33522C4.65465 9.45072 4.65511 9.57562 4.61723 9.6914L3.28387 13.6915C3.25559 13.7794 3.24894 13.8728 3.26447 13.9638C3.28001 14.0548 3.31729 14.1407 3.37313 14.2143C3.42967 14.2883 3.50282 14.3479 3.58667 14.3884C3.67052 14.4289 3.76273 14.4491 3.85583 14.4474C3.98215 14.4469 4.10512 14.4068 4.20739 14.3327L7.67923 11.8754C7.78306 11.8027 7.90675 11.7637 8.03352 11.7637C8.16029 11.7637 8.28398 11.8027 8.38781 11.8754L11.8597 14.3327C11.9619 14.4068 12.0849 14.4469 12.2112 14.4474C12.3043 14.4491 12.3965 14.4289 12.4804 14.3884C12.5642 14.3479 12.6374 14.2883 12.6939 14.2143C12.7498 14.1407 12.787 14.0548 12.8026 13.9638C12.8181 13.8728 12.8115 13.7794 12.7832 13.6915L11.4498 9.69505C11.4119 9.57927 11.4124 9.45436 11.4511 9.33887C11.4898 9.22337 11.5647 9.12342 11.6648 9.05386L15.1639 6.58751C15.265 6.51678 15.3405 6.41515 15.3789 6.29789C15.4173 6.18064 15.4167 6.05408 15.377 5.93722C15.3365 5.82005 15.2598 5.71879 15.158 5.64807C15.0562 5.57735 14.9345 5.54082 14.8105 5.54377L10.4971 5.5383Z" fill="#508A7B"/>
<path fill-rule="evenodd" clip-rule="evenodd" d="M31.565 5.5383C31.44 5.53956 31.3178 5.50156 31.2155 5.42967C31.1132 5.35778 31.036 5.25561 30.9949 5.13757L29.6724 1.15933C29.6304 1.04207 29.5531 0.940655 29.4512 0.868961C29.3493 0.797267 29.2278 0.758789 29.1032 0.758789C28.9786 0.758789 28.8571 0.797267 28.7552 0.868961C28.6533 0.940655 28.5761 1.04207 28.534 1.15933L27.2043 5.13028C27.1631 5.24833 27.086 5.35049 26.9837 5.42238C26.8814 5.49427 26.7591 5.53227 26.6341 5.53102H22.3262C22.2023 5.52807 22.0806 5.5646 21.9788 5.63532C21.8769 5.70604 21.8002 5.8073 21.7597 5.92447C21.7201 6.04133 21.7194 6.16789 21.7578 6.28514C21.7963 6.4024 21.8717 6.50402 21.9728 6.57476L25.4702 9.05022C25.5702 9.11978 25.6451 9.21972 25.6838 9.33522C25.7225 9.45072 25.723 9.57562 25.6851 9.6914L24.3517 13.6915C24.3235 13.7794 24.3168 13.8728 24.3323 13.9638C24.3479 14.0548 24.3852 14.1407 24.441 14.2143C24.4975 14.2883 24.5707 14.3479 24.6545 14.3884C24.7384 14.4289 24.8306 14.4491 24.9237 14.4474C25.05 14.4469 25.173 14.4068 25.2753 14.3327L28.7471 11.8754C28.8509 11.8027 28.9746 11.7637 29.1014 11.7637C29.2282 11.7637 29.3519 11.8027 29.4557 11.8754L32.9275 14.3327C33.0298 14.4068 33.1528 14.4469 33.2791 14.4474C33.3722 14.4491 33.4644 14.4289 33.5482 14.3884C33.6321 14.3479 33.7052 14.2883 33.7618 14.2143C33.8176 14.1407 33.8549 14.0548 33.8704 13.9638C33.886 13.8728 33.8793 13.7794 33.851 13.6915L32.5177 9.69505C32.4798 9.57927 32.4803 9.45436 32.519 9.33887C32.5577 9.22337 32.6326 9.12342 32.7326 9.05386L36.2318 6.58751C36.3329 6.51678 36.4083 6.41515 36.4468 6.29789C36.4852 6.18064 36.4845 6.05408 36.4449 5.93722C36.4044 5.82005 36.3277 5.71879 36.2259 5.64807C36.124 5.57735 36.0024 5.54082 35.8784 5.54377L31.565 5.5383Z" fill="#508A7B"/>
<path fill-rule="evenodd" clip-rule="evenodd" d="M52.6312 5.5383C52.5062 5.53956 52.3839 5.50156 52.2816 5.42967C52.1794 5.35778 52.1022 5.25561 52.061 5.13757L50.7386 1.15933C50.6965 1.04207 50.6193 0.940655 50.5174 0.868961C50.4155 0.797267 50.294 0.758789 50.1694 0.758789C50.0448 0.758789 49.9232 0.797267 49.8214 0.868961C49.7195 0.940655 49.6422 1.04207 49.6001 1.15933L48.2704 5.13028C48.2293 5.24833 48.1521 5.35049 48.0498 5.42238C47.9476 5.49427 47.8253 5.53227 47.7003 5.53102H43.3924C43.2684 5.52807 43.1467 5.5646 43.0449 5.63532C42.9431 5.70604 42.8664 5.8073 42.8259 5.92447C42.7862 6.04133 42.7856 6.16789 42.824 6.28514C42.8624 6.4024 42.9379 6.50402 43.039 6.57476L46.5363 9.05022C46.6363 9.11978 46.7112 9.21972 46.75 9.33522C46.7887 9.45072 46.7891 9.57562 46.7513 9.6914L45.4179 13.6915C45.3896 13.7794 45.383 13.8728 45.3985 13.9638C45.414 14.0548 45.4513 14.1407 45.5072 14.2143C45.5637 14.2883 45.6369 14.3479 45.7207 14.3884C45.8046 14.4289 45.8968 14.4491 45.9899 14.4474C46.1162 14.4469 46.2391 14.4068 46.3414 14.3327L49.8133 11.8754C49.9171 11.8027 50.0408 11.7637 50.1676 11.7637C50.2943 11.7637 50.418 11.8027 50.5218 11.8754L53.9937 14.3327C54.096 14.4068 54.2189 14.4469 54.3452 14.4474C54.4384 14.4491 54.5306 14.4289 54.6144 14.3884C54.6983 14.3479 54.7714 14.2883 54.828 14.2143C54.8838 14.1407 54.9211 14.0548 54.9366 13.9638C54.9521 13.8728 54.9455 13.7794 54.9172 13.6915L53.5838 9.69505C53.546 9.57927 53.5464 9.45436 53.5851 9.33887C53.6239 9.22337 53.6988 9.12342 53.7988 9.05386L57.298 6.58751C57.3991 6.51678 57.4745 6.41515 57.5129 6.29789C57.5514 6.18064 57.5507 6.05408 57.5111 5.93722C57.4706 5.82005 57.3938 5.71879 57.292 5.64807C57.1902 5.57735 57.0685 5.54082 56.9446 5.54377L52.6312 5.5383Z" fill="#508A7B"/>
<path fill-rule="evenodd" clip-rule="evenodd" d="M73.6993 5.5383C73.5743 5.53956 73.452 5.50156 73.3497 5.42967C73.2475 5.35778 73.1703 5.25561 73.1292 5.13757L71.8067 1.15933C71.7647 1.04207 71.6874 0.940655 71.5855 0.868961C71.4836 0.797267 71.3621 0.758789 71.2375 0.758789C71.1129 0.758789 70.9914 0.797267 70.8895 0.868961C70.7876 0.940655 70.7103 1.04207 70.6683 1.15933L69.3385 5.13028C69.2974 5.24833 69.2202 5.35049 69.118 5.42238C69.0157 5.49427 68.8934 5.53227 68.7684 5.53102H64.4605C64.3365 5.52807 64.2149 5.5646 64.113 5.63532C64.0112 5.70604 63.9345 5.8073 63.894 5.92447C63.8543 6.04133 63.8537 6.16789 63.8921 6.28514C63.9306 6.4024 64.006 6.50402 64.1071 6.57476L67.6044 9.05022C67.7044 9.11978 67.7794 9.21972 67.8181 9.33522C67.8568 9.45072 67.8573 9.57562 67.8194 9.6914L66.486 13.6915C66.4577 13.7794 66.4511 13.8728 66.4666 13.9638C66.4822 14.0548 66.5194 14.1407 66.5753 14.2143C66.6318 14.2883 66.705 14.3479 66.7888 14.3884C66.8727 14.4289 66.9649 14.4491 67.058 14.4474C67.1843 14.4469 67.3073 14.4068 67.4095 14.3327L70.8814 11.8754C70.9852 11.8027 71.1089 11.7637 71.2357 11.7637C71.3624 11.7637 71.4861 11.8027 71.59 11.8754L75.0618 14.3327C75.1641 14.4068 75.287 14.4469 75.4134 14.4474C75.5065 14.4491 75.5987 14.4289 75.6825 14.3884C75.7664 14.3479 75.8395 14.2883 75.8961 14.2143C75.9519 14.1407 75.9892 14.0548 76.0047 13.9638C76.0203 13.8728 76.0136 13.7794 75.9853 13.6915L74.652 9.69505C74.6141 9.57927 74.6145 9.45436 74.6533 9.33887C74.692 9.22337 74.7669 9.12342 74.8669 9.05386L78.3661 6.58751C78.4672 6.51678 78.5426 6.41515 78.581 6.29789C78.6195 6.18064 78.6188 6.05408 78.5792 5.93722C78.5387 5.82005 78.462 5.71879 78.3601 5.64807C78.2583 5.57735 78.1366 5.54082 78.0127 5.54377L73.6993 5.5383Z" fill="#508A7B"/>
<g filter="url(#filter0_d_23_2322)">
<path d="M92.3037 1.21387C92.3344 1.21393 92.3646 1.22356 92.3896 1.24121C92.4022 1.25007 92.4127 1.26134 92.4219 1.27344L92.4443 1.31348L93.7627 5.28125L93.7646 5.28711C93.8371 5.49493 93.9734 5.67509 94.1533 5.80176C94.3322 5.92746 94.5461 5.99429 94.7646 5.99316V5.99414L99.0781 5.99902H99.0898C99.1171 5.99846 99.1436 6.0069 99.166 6.02246C99.1879 6.03768 99.2047 6.05896 99.2139 6.08398C99.2217 6.10738 99.2216 6.13281 99.2139 6.15625C99.2061 6.17973 99.1912 6.20066 99.1709 6.21484H99.1699L95.6729 8.67969C95.4925 8.80516 95.357 8.98599 95.2871 9.19434C95.2174 9.4026 95.2169 9.62816 95.2852 9.83691L95.2861 9.83887L96.6182 13.833C96.6234 13.8504 96.6251 13.8688 96.6221 13.8867C96.6189 13.9055 96.6101 13.9233 96.5986 13.9385C96.5856 13.9551 96.5698 13.9693 96.5508 13.9785C96.5312 13.988 96.509 13.9926 96.4873 13.9922H96.4814C96.4505 13.9921 96.4196 13.982 96.3945 13.9639L96.3906 13.9609L92.9189 11.5039L92.917 11.5029L92.7754 11.4189C92.6286 11.3467 92.4668 11.3086 92.3018 11.3086C92.0815 11.3086 91.8659 11.3766 91.6855 11.5029L91.6846 11.5039L88.2119 13.9609L88.208 13.9639C88.183 13.982 88.1529 13.9921 88.1221 13.9922H88.1152C88.0936 13.9925 88.0722 13.9879 88.0527 13.9785C88.0335 13.9692 88.017 13.9553 88.0039 13.9385C87.9925 13.9234 87.9846 13.9054 87.9814 13.8867C87.9785 13.8688 87.9791 13.8504 87.9844 13.833L89.3174 9.83496L89.3184 9.83301C89.3867 9.62417 89.3853 9.39876 89.3154 9.19043C89.2459 8.98315 89.1117 8.80408 88.9326 8.67871H88.9336L85.4365 6.20312L85.4336 6.20117C85.4135 6.18698 85.3983 6.16689 85.3906 6.14355C85.3832 6.12077 85.3834 6.09608 85.3906 6.07324C85.3996 6.04753 85.4162 6.02536 85.4385 6.00977C85.4498 6.00187 85.4625 5.9951 85.4756 5.99121L85.5156 5.98633H89.834V5.98535C90.0527 5.98667 90.2663 5.92068 90.4453 5.79492C90.6255 5.66828 90.7614 5.48821 90.834 5.28027H90.835L90.8359 5.27441L92.1631 1.31348C92.1735 1.28451 92.1926 1.25892 92.2178 1.24121C92.2429 1.22364 92.2731 1.21387 92.3037 1.21387Z" stroke="#508A7B" stroke-width="0.910767" shape-rendering="crispEdges"/>
</g>
</g>
<defs>
<filter id="filter0_d_23_2322" x="77.6435" y="0.758789" width="29.3179" height="28.261" filterUnits="userSpaceOnUse" color-interpolation-filters="sRGB">
<feFlood flood-opacity="0" result="BackgroundImageFix"/>
<feColorMatrix in="SourceAlpha" type="matrix" values="0 0 0 0 0 0 0 0 0 0 0 0 0 0 0 0 0 0 127 0" result="hardAlpha"/>
<feOffset dy="7.28614"/>
<feGaussianBlur stdDeviation="3.64307"/>
<feComposite in2="hardAlpha" operator="out"/>
<feColorMatrix type="matrix" values="0 0 0 0 0 0 0 0 0 0 0 0 0 0 0 0 0 0 0.25 0"/>
<feBlend mode="normal" in2="BackgroundImageFix" result="effect1_dropShadow_23_2322"/>
<feBlend mode="normal" in="SourceGraphic" in2="effect1_dropShadow_23_2322" result="shape"/>
</filter>
<clipPath id="clip0_23_2322">
<rect width="99.015" height="13.6943" fill="white" transform="translate(0.660889 0.758789)"/>
</clipPath>
</defs>
</svg>
