<svg width="100" height="14" viewBox="0 0 100 14" fill="none" xmlns="http://www.w3.org/2000/svg">
<path fill-rule="evenodd" clip-rule="evenodd" d="M9.8365 5.05576C9.71149 5.05701 9.58924 5.01902 9.48695 4.94713C9.38467 4.87524 9.30752 4.77307 9.26636 4.65502L7.94393 0.67679C7.90186 0.559523 7.8246 0.458111 7.72271 0.386417C7.62083 0.314723 7.49928 0.276245 7.3747 0.276245C7.25012 0.276245 7.12857 0.314723 7.02668 0.386417C6.9248 0.458111 6.84754 0.559523 6.80547 0.67679L5.47575 4.64774C5.43459 4.76579 5.35744 4.86795 5.25516 4.93984C5.15288 5.01173 5.03062 5.04973 4.90561 5.04847H0.597679C0.473737 5.04553 0.352066 5.08205 0.250239 5.15278C0.148412 5.2235 0.0717006 5.32476 0.0311823 5.44192C-0.00844841 5.55878 -0.00909833 5.68534 0.0293305 5.8026C0.0677594 5.91986 0.143192 6.02148 0.244301 6.09221L3.74165 8.56768C3.84165 8.63724 3.91657 8.73718 3.95529 8.85268C3.994 8.96818 3.99446 9.09308 3.95659 9.20886L2.62323 13.2089C2.59494 13.2968 2.58829 13.3903 2.60383 13.4813C2.61937 13.5723 2.65664 13.6582 2.71248 13.7317C2.76902 13.8057 2.84218 13.8654 2.92603 13.9059C3.00988 13.9464 3.10208 13.9666 3.19519 13.9649C3.3215 13.9644 3.44447 13.9243 3.54674 13.8501L7.01859 11.3929C7.12241 11.3201 7.24611 11.2811 7.37288 11.2811C7.49964 11.2811 7.62334 11.3201 7.72717 11.3929L11.199 13.8501C11.3013 13.9243 11.4243 13.9644 11.5506 13.9649C11.6437 13.9666 11.7359 13.9464 11.8197 13.9059C11.9036 13.8654 11.9767 13.8057 12.0333 13.7317C12.0891 13.6582 12.1264 13.5723 12.1419 13.4813C12.1575 13.3903 12.1508 13.2968 12.1225 13.2089L10.7892 9.2125C10.7513 9.09672 10.7518 8.97182 10.7905 8.85632C10.8292 8.74082 10.9041 8.64088 11.0041 8.57132L14.5033 6.10496C14.6044 6.03423 14.6798 5.93261 14.7182 5.81535C14.7567 5.69809 14.756 5.57153 14.7164 5.45468C14.6759 5.33751 14.5992 5.23625 14.4973 5.16553C14.3955 5.0948 14.2738 5.05828 14.1499 5.06122L9.8365 5.05576Z" fill="#508A7B"/>
<path fill-rule="evenodd" clip-rule="evenodd" d="M30.9041 5.05576C30.7791 5.05701 30.6569 5.01902 30.5546 4.94713C30.4523 4.87524 30.3751 4.77307 30.334 4.65502L29.0116 0.67679C28.9695 0.559523 28.8922 0.458111 28.7903 0.386417C28.6885 0.314723 28.5669 0.276245 28.4423 0.276245C28.3177 0.276245 28.1962 0.314723 28.0943 0.386417C27.9924 0.458111 27.9152 0.559523 27.8731 0.67679L26.5434 4.64774C26.5022 4.76579 26.4251 4.86795 26.3228 4.93984C26.2205 5.01173 26.0982 5.04973 25.9732 5.04847H21.6653C21.5414 5.04553 21.4197 5.08205 21.3179 5.15278C21.216 5.2235 21.1393 5.32476 21.0988 5.44192C21.0592 5.55878 21.0585 5.68534 21.097 5.8026C21.1354 5.91986 21.2108 6.02148 21.3119 6.09221L24.8093 8.56768C24.9093 8.63724 24.9842 8.73718 25.0229 8.85268C25.0616 8.96818 25.0621 9.09308 25.0242 9.20886L23.6909 13.2089C23.6626 13.2968 23.6559 13.3903 23.6715 13.4813C23.687 13.5723 23.7243 13.6582 23.7801 13.7317C23.8367 13.8057 23.9098 13.8654 23.9937 13.9059C24.0775 13.9464 24.1697 13.9666 24.2628 13.9649C24.3891 13.9644 24.5121 13.9243 24.6144 13.8501L28.0862 11.3929C28.19 11.3201 28.3137 11.2811 28.4405 11.2811C28.5673 11.2811 28.691 11.3201 28.7948 11.3929L32.2666 13.8501C32.3689 13.9243 32.4919 13.9644 32.6182 13.9649C32.7113 13.9666 32.8035 13.9464 32.8874 13.9059C32.9712 13.8654 33.0444 13.8057 33.1009 13.7317C33.1567 13.6582 33.194 13.5723 33.2096 13.4813C33.2251 13.3903 33.2184 13.2968 33.1902 13.2089L31.8568 9.2125C31.8189 9.09672 31.8194 8.97182 31.8581 8.85632C31.8968 8.74082 31.9717 8.64088 32.0717 8.57132L35.5709 6.10496C35.672 6.03423 35.7474 5.93261 35.7859 5.81535C35.8243 5.69809 35.8237 5.57153 35.784 5.45468C35.7435 5.33751 35.6668 5.23625 35.565 5.16553C35.4631 5.0948 35.3415 5.05828 35.2175 5.06122L30.9041 5.05576Z" fill="#508A7B"/>
<path fill-rule="evenodd" clip-rule="evenodd" d="M51.9705 5.05576C51.8455 5.05701 51.7233 5.01902 51.621 4.94713C51.5187 4.87524 51.4416 4.77307 51.4004 4.65502L50.078 0.67679C50.0359 0.559523 49.9586 0.458111 49.8567 0.386417C49.7549 0.314723 49.6333 0.276245 49.5087 0.276245C49.3841 0.276245 49.2626 0.314723 49.1607 0.386417C49.0588 0.458111 48.9816 0.559523 48.9395 0.67679L47.6098 4.64774C47.5686 4.76579 47.4915 4.86795 47.3892 4.93984C47.2869 5.01173 47.1647 5.04973 47.0396 5.04847H42.7317C42.6078 5.04553 42.4861 5.08205 42.3843 5.15278C42.2824 5.2235 42.2057 5.32476 42.1652 5.44192C42.1256 5.55878 42.1249 5.68534 42.1634 5.8026C42.2018 5.91986 42.2772 6.02148 42.3783 6.09221L45.8757 8.56768C45.9757 8.63724 46.0506 8.73718 46.0893 8.85268C46.128 8.96818 46.1285 9.09308 46.0906 9.20886L44.7573 13.2089C44.729 13.2968 44.7223 13.3903 44.7379 13.4813C44.7534 13.5723 44.7907 13.6582 44.8465 13.7317C44.9031 13.8057 44.9762 13.8654 45.0601 13.9059C45.1439 13.9464 45.2361 13.9666 45.3292 13.9649C45.4555 13.9644 45.5785 13.9243 45.6808 13.8501L49.1526 11.3929C49.2564 11.3201 49.3801 11.2811 49.5069 11.2811C49.6337 11.2811 49.7574 11.3201 49.8612 11.3929L53.333 13.8501C53.4353 13.9243 53.5583 13.9644 53.6846 13.9649C53.7777 13.9666 53.8699 13.9464 53.9538 13.9059C54.0376 13.8654 54.1108 13.8057 54.1673 13.7317C54.2231 13.6582 54.2604 13.5723 54.276 13.4813C54.2915 13.3903 54.2848 13.2968 54.2566 13.2089L52.9232 9.2125C52.8853 9.09672 52.8858 8.97182 52.9245 8.85632C52.9632 8.74082 53.0381 8.64088 53.1381 8.57132L56.6373 6.10496C56.7384 6.03423 56.8139 5.93261 56.8523 5.81535C56.8907 5.69809 56.8901 5.57153 56.8504 5.45468C56.8099 5.33751 56.7332 5.23625 56.6314 5.16553C56.5295 5.0948 56.4079 5.05828 56.2839 5.06122L51.9705 5.05576Z" fill="#508A7B"/>
<path fill-rule="evenodd" clip-rule="evenodd" d="M73.0382 5.05576C72.9132 5.05701 72.7909 5.01902 72.6886 4.94713C72.5863 4.87524 72.5092 4.77307 72.468 4.65502L71.1456 0.67679C71.1035 0.559523 71.0263 0.458111 70.9244 0.386417C70.8225 0.314723 70.7009 0.276245 70.5764 0.276245C70.4518 0.276245 70.3302 0.314723 70.2283 0.386417C70.1265 0.458111 70.0492 0.559523 70.0071 0.67679L68.6774 4.64774C68.6363 4.76579 68.5591 4.86795 68.4568 4.93984C68.3545 5.01173 68.2323 5.04973 68.1073 5.04847H63.7993C63.6754 5.04553 63.5537 5.08205 63.4519 5.15278C63.3501 5.2235 63.2734 5.32476 63.2328 5.44192C63.1932 5.55878 63.1926 5.68534 63.231 5.8026C63.2694 5.91986 63.3449 6.02148 63.446 6.09221L66.9433 8.56768C67.0433 8.63724 67.1182 8.73718 67.1569 8.85268C67.1957 8.96818 67.1961 9.09308 67.1582 9.20886L65.8249 13.2089C65.7966 13.2968 65.79 13.3903 65.8055 13.4813C65.821 13.5723 65.8583 13.6582 65.9141 13.7317C65.9707 13.8057 66.0438 13.8654 66.1277 13.9059C66.2115 13.9464 66.3037 13.9666 66.3968 13.9649C66.5232 13.9644 66.6461 13.9243 66.7484 13.8501L70.2202 11.3929C70.3241 11.3201 70.4478 11.2811 70.5745 11.2811C70.7013 11.2811 70.825 11.3201 70.9288 11.3929L74.4007 13.8501C74.5029 13.9243 74.6259 13.9644 74.7522 13.9649C74.8453 13.9666 74.9375 13.9464 75.0214 13.9059C75.1052 13.8654 75.1784 13.8057 75.2349 13.7317C75.2908 13.6582 75.328 13.5723 75.3436 13.4813C75.3591 13.3903 75.3525 13.2968 75.3242 13.2089L73.9908 9.2125C73.953 9.09672 73.9534 8.97182 73.9921 8.85632C74.0308 8.74082 74.1058 8.64088 74.2058 8.57132L77.7049 6.10496C77.806 6.03423 77.8815 5.93261 77.9199 5.81535C77.9583 5.69809 77.9577 5.57153 77.9181 5.45468C77.8775 5.33751 77.8008 5.23625 77.699 5.16553C77.5972 5.0948 77.4755 5.05828 77.3516 5.06122L73.0382 5.05576Z" fill="#508A7B"/>
<path fill-rule="evenodd" clip-rule="evenodd" d="M94.1041 5.05576C93.9791 5.05701 93.8568 5.01902 93.7545 4.94713C93.6523 4.87524 93.5751 4.77307 93.5339 4.65502L92.2115 0.67679C92.1694 0.559523 92.0922 0.458111 91.9903 0.386417C91.8884 0.314723 91.7669 0.276245 91.6423 0.276245C91.5177 0.276245 91.3961 0.314723 91.2943 0.386417C91.1924 0.458111 91.1151 0.559523 91.073 0.67679L89.7433 4.64774C89.7022 4.76579 89.625 4.86795 89.5227 4.93984C89.4205 5.01173 89.2982 5.04973 89.1732 5.04847H84.8653C84.7413 5.04553 84.6196 5.08205 84.5178 5.15278C84.416 5.2235 84.3393 5.32476 84.2988 5.44192C84.2591 5.55878 84.2585 5.68534 84.2969 5.8026C84.3353 5.91986 84.4108 6.02148 84.5119 6.09221L88.0092 8.56768C88.1092 8.63724 88.1841 8.73718 88.2229 8.85268C88.2616 8.96818 88.262 9.09308 88.2242 9.20886L86.8908 13.2089C86.8625 13.2968 86.8559 13.3903 86.8714 13.4813C86.8869 13.5723 86.9242 13.6582 86.9801 13.7317C87.0366 13.8057 87.1098 13.8654 87.1936 13.9059C87.2775 13.9464 87.3697 13.9666 87.4628 13.9649C87.5891 13.9644 87.712 13.9243 87.8143 13.8501L91.2862 11.3929C91.39 11.3201 91.5137 11.2811 91.6405 11.2811C91.7672 11.2811 91.8909 11.3201 91.9947 11.3929L95.4666 13.8501C95.5689 13.9243 95.6918 13.9644 95.8181 13.9649C95.9113 13.9666 96.0035 13.9464 96.0873 13.9059C96.1712 13.8654 96.2443 13.8057 96.3009 13.7317C96.3567 13.6582 96.394 13.5723 96.4095 13.4813C96.425 13.3903 96.4184 13.2968 96.3901 13.2089L95.0567 9.2125C95.0189 9.09672 95.0193 8.97182 95.058 8.85632C95.0968 8.74082 95.1717 8.64088 95.2717 8.57132L98.7709 6.10496C98.872 6.03423 98.9474 5.93261 98.9858 5.81535C99.0243 5.69809 99.0236 5.57153 98.984 5.45468C98.9435 5.33751 98.8667 5.23625 98.7649 5.16553C98.6631 5.0948 98.5414 5.05828 98.4175 5.06122L94.1041 5.05576Z" fill="#508A7B"/>
</svg>
