<svg width="78" height="21" viewBox="0 0 78 21" fill="none" xmlns="http://www.w3.org/2000/svg">
<path d="M16.5753 0.916748H3.3831C1.66509 0.916748 0.273438 2.32123 0.273438 4.05208V17.3561C0.273438 19.087 1.66509 20.4915 3.3831 20.4915H16.5753C18.2933 20.4915 19.6831 19.087 19.6831 17.3561V4.05208C19.685 2.3194 18.2933 0.916748 16.5753 0.916748Z" fill="#1677FF"/>
<path d="M16.2547 13.2088C15.4791 12.9466 14.4358 12.545 13.2752 12.1215C13.9719 10.8985 14.5293 9.50686 14.896 7.9942H11.0694V6.60439H15.7559V5.82881H11.0694V3.51123H9.15708C8.82154 3.51123 8.82154 3.84493 8.82154 3.84493V5.82697H4.08188V6.60256H8.82154V7.99237H4.90696V8.76795H12.4978C12.2209 9.73239 11.8469 10.64 11.405 11.4632C8.94256 10.6437 6.31328 9.97991 4.66311 10.3888C3.60699 10.651 2.92676 11.1185 2.52705 11.6099C0.693523 13.8597 2.00816 17.2773 5.88057 17.2773C8.17064 17.2773 10.3764 15.9902 12.0852 13.8688C14.6357 15.1046 19.6834 17.2278 19.6834 17.2278V14.2025C19.6852 14.2025 19.0508 14.1512 16.2547 13.2088ZM5.51936 15.97C2.49954 15.97 1.60662 13.5718 3.09911 12.259C3.59783 11.8153 4.50726 11.5989 4.99131 11.5512C6.7845 11.3734 8.44567 12.0628 10.4057 13.0272C9.02873 14.8388 7.27405 15.97 5.51936 15.97Z" fill="white"/>
<path d="M42.4209 3.78244C42.4209 4.79454 43.1616 5.47661 44.1939 5.47661C45.2262 5.47661 45.9669 4.79454 45.9669 3.78244C45.9669 2.78866 45.2262 2.08826 44.1939 2.08826C43.1616 2.08826 42.4209 2.78866 42.4209 3.78244Z" fill="#1677FF"/>
<path d="M40.5513 2.5155H37.4746V16.7327H40.5513V2.5155Z" fill="black"/>
<path d="M32.079 3.0033H27.9499L23.335 16.7346H26.1788L26.958 14.0466H31.8462L32.5869 16.7346H36.2283L32.079 3.0033ZM27.5997 11.8061L29.4296 5.47672H29.5066L31.2393 11.8061H27.5997Z" fill="black"/>
<path d="M45.73 6.29456H42.6533V16.7347H45.73V6.29456Z" fill="black"/>
<path d="M77.8886 6.31472L77.9069 6.29456H75.0063L73.1746 12.6441H73.0774L70.9744 6.29456H67.5273L71.6748 16.7732L69.9421 19.9672V20.0442H72.6484L77.8886 6.31472Z" fill="black"/>
<path d="M53.3859 6.07996C52.2564 6.07996 51.38 6.509 50.3862 7.32675V6.29448H47.3096V20.0441H50.3862V16.6356C50.9711 16.7914 51.5157 16.8703 52.1776 16.8703C54.9242 16.8703 57.3976 14.8442 57.3976 11.2413C57.3976 8.00882 55.6063 6.07996 53.3859 6.07996ZM51.4368 14.9414C51.0866 14.9414 50.7548 14.9029 50.3844 14.7855V9.13828C51.028 8.6909 51.5523 8.47638 52.2143 8.47638C53.3639 8.47638 54.2788 9.3913 54.2788 11.3403C54.2806 13.8321 52.9367 14.9414 51.4368 14.9414Z" fill="black"/>
<path d="M66.9213 14.1236V9.76167C66.9213 7.38542 65.5187 6.07996 63.0452 6.07996C61.4666 6.07996 60.3775 6.35315 58.3899 6.95638L58.9345 9.3528C60.746 8.53505 61.5436 8.18485 62.3815 8.18485C63.3936 8.18485 63.8428 8.90542 63.8428 10.0165V10.0935C60.317 10.7555 59.226 11.1258 58.5458 11.8079C58.0397 12.3139 57.8252 13.0345 57.8252 13.8724C57.8252 15.8783 59.3837 16.9491 60.8432 16.9491C61.9341 16.9491 62.8105 16.5402 63.9987 15.6436L64.2132 16.7346H67.2899L66.9213 14.1236ZM63.8447 14.2025C63.0269 14.6499 62.5594 14.8259 62.0148 14.8259C61.2741 14.8259 60.8065 14.3382 60.8065 13.5607C60.8065 13.2692 60.8652 12.9758 61.098 12.743C61.4684 12.3726 62.189 12.0994 63.8447 11.7107V14.2025Z" fill="black"/>
</svg>
