<svg width="81" height="21" viewBox="0 0 81 21" fill="none" xmlns="http://www.w3.org/2000/svg">
<path fill-rule="evenodd" clip-rule="evenodd" d="M9.53645 0.567139L0.457031 20.6596H11.3264L12.6739 17.456H15.7539L17.1014 20.6596H29.0655V18.2145L30.1315 20.6596H36.3203L37.3864 18.1629V20.6596H62.2684L65.294 17.5392L68.127 20.6596L80.9069 20.6854L71.7988 10.6695L80.9069 0.567139H68.3252L65.38 3.62985L62.6362 0.567139H35.5678L33.2434 5.75317L30.8645 0.567139H20.0179V2.92901L18.8113 0.567139H9.53645ZM11.6407 3.42023H16.9389L22.9613 17.045V3.42023H28.7653L33.4169 13.1892L37.7038 3.42023H43.4788V17.8379H39.9649L39.9362 6.5403L34.8132 17.8379H31.6698L26.5181 6.5403V17.8379H19.2891L17.9186 14.6056H10.5144L9.14676 17.8351H5.27354L11.6407 3.42023ZM60.9812 3.42023H46.6927V17.8294H60.76L65.294 13.054L69.6642 17.8294H74.2326L67.5925 10.6666L74.2326 3.42023H69.8624L65.3514 8.14083L60.9812 3.42023ZM14.217 5.85973L11.7776 11.6177H16.6536L14.217 5.85973ZM50.2209 9.03747V6.40553V6.40301H59.1365L63.0267 10.6122L58.9641 14.8443H50.2209V11.971H58.0159V9.03747H50.2209Z" fill="white"/>
</svg>
