<svg width="55" height="55" viewBox="0 0 55 55" fill="none" xmlns="http://www.w3.org/2000/svg">
<g filter="url(#filter0_d_137_2758)">
<circle cx="26.5" cy="26.5" r="23.5" fill="#D9D9D9" fill-opacity="0.5" shape-rendering="crispEdges"/>
<circle cx="26.5" cy="26.5" r="23" stroke="#E0E0E0" shape-rendering="crispEdges"/>
</g>
<path d="M19.9393 24.9393C19.3536 25.5251 19.3536 26.4749 19.9393 27.0607L29.4853 36.6066C30.0711 37.1924 31.0208 37.1924 31.6066 36.6066C32.1924 36.0208 32.1924 35.0711 31.6066 34.4853L23.1213 26L31.6066 17.5147C32.1924 16.9289 32.1924 15.9792 31.6066 15.3934C31.0208 14.8076 30.0711 14.8076 29.4853 15.3934L19.9393 24.9393ZM22 26L22 24.5L21 24.5L21 26L21 27.5L22 27.5L22 26Z" fill="#563E32"/>
<defs>
<filter id="filter0_d_137_2758" x="0" y="0" width="55" height="55" filterUnits="userSpaceOnUse" color-interpolation-filters="sRGB">
<feFlood flood-opacity="0" result="BackgroundImageFix"/>
<feColorMatrix in="SourceAlpha" type="matrix" values="0 0 0 0 0 0 0 0 0 0 0 0 0 0 0 0 0 0 127 0" result="hardAlpha"/>
<feOffset dx="1" dy="1"/>
<feGaussianBlur stdDeviation="2"/>
<feComposite in2="hardAlpha" operator="out"/>
<feColorMatrix type="matrix" values="0 0 0 0 0 0 0 0 0 0 0 0 0 0 0 0 0 0 0.07 0"/>
<feBlend mode="normal" in2="BackgroundImageFix" result="effect1_dropShadow_137_2758"/>
<feBlend mode="normal" in="SourceGraphic" in2="effect1_dropShadow_137_2758" result="shape"/>
</filter>
</defs>
</svg>
