<svg width="455" height="266" viewBox="0 0 455 266" fill="none" xmlns="http://www.w3.org/2000/svg">
<rect x="0.460938" y="0.388428" width="454.073" height="265.223" rx="21.6963" fill="url(#paint0_linear_415_2358)"/>
<mask id="mask0_415_2358" style="mask-type:alpha" maskUnits="userSpaceOnUse" x="0" y="0" width="399" height="266">
<path d="M381.664 0.388428H17.787C8.21808 0.388428 0.460938 8.52161 0.460938 18.5544V247.446C0.460938 257.478 8.21808 265.612 17.787 265.612H381.664C391.233 265.612 398.99 257.478 398.99 247.446V18.5544C398.99 8.52161 391.233 0.388428 381.664 0.388428Z" fill="#B4CEFF"/>
</mask>
<g mask="url(#mask0_415_2358)">
<path d="M140.22 171.549C109.777 148.137 83.5221 118.429 66.6654 84.3018C52.3176 55.2527 34.5815 3.54848 62.1359 -23.1363C72.5887 -33.2581 87.1628 -37.972 100.855 -43.322C142.462 -59.58 176.661 -91.6618 223.956 -84.7417C262.576 -79.0878 297.906 -57.4326 328.488 -34.9204C356.627 -14.2059 379.204 11.9082 389.073 40.4654C397.049 63.5412 397.383 89.1147 385.901 106.91C382.279 112.436 377.69 117.305 372.341 121.297C366.661 125.609 360.029 129.536 352.839 133.217C328.177 145.841 306.606 158.701 288.342 179.383C272.647 197.156 254.765 208.272 229.791 208.668C208.257 209.008 187.208 201.526 168.742 190.758C158.819 184.956 149.292 178.54 140.22 171.549V171.549Z" fill="url(#paint1_linear_415_2358)"/>
<path d="M-50.7591 40.7271C-50.168 56.2656 -47.5235 71.6915 -42.8783 86.6949C-38.1167 101.735 -30.9134 116.163 -21.0155 129.137C-9.4756 144.263 5.53757 157.175 20.9172 169.49C35.8665 181.46 50.6533 195.234 68.447 203.637C90.412 214.007 109.206 210.492 129.944 202.558C136.615 200.006 143.8 197.206 151.303 194.396C168.55 188.565 186.492 184.365 204.599 180.681C221.599 177.223 240.645 175.701 256.907 169.696C262.535 167.621 267.861 164.963 272.771 161.779C278.034 158.328 282.971 154.511 287.536 150.365C295.392 143.309 302.173 135.389 307.709 126.804C313.073 118.411 317.403 109.541 320.626 100.343C324.204 91.1804 327.209 81.7161 329.999 72.1306C332.789 62.5452 335.295 52.8293 337.625 43.1327C341.293 27.8785 342.891 12.715 341.632 -1.566C340.372 -15.847 335.976 -29.2606 327.696 -41.0184C320.49 -51.086 310.8 -59.6056 299.342 -65.9491C286.419 -73.1034 271.855 -77.6651 256.691 -79.3086C246.431 -80.3768 236.067 -80.4287 225.794 -79.4632C213.895 -78.3267 202.077 -76.6165 190.392 -74.3403C179.527 -72.2989 168.724 -70.2997 157.957 -68.4898C147.189 -66.68 136.501 -65.0539 125.855 -63.7576C115.208 -62.4612 104.698 -61.4967 94.2868 -61.0088C84.0702 -60.4987 73.8279 -60.5322 63.616 -61.1094C45.8148 -62.1716 29.5477 -61.5837 14.899 -58.0204C-0.309679 -54.4104 -14.0471 -47.1039 -24.7308 -36.9425C-40.7368 -21.9154 -47.4399 -3.2217 -49.9005 16.8055C-50.8464 24.7507 -51.1332 32.7454 -50.7591 40.7271Z" fill="url(#paint2_linear_415_2358)"/>
</g>
<path d="M32.2499 167.026V163.232H23.9185V161.744L32.5722 149.545H34.2584V161.571H36.9363V163.232H34.2584V167.026H32.2499ZM32.2499 161.571V151.975H32.7954L25.6046 162.092V161.571H32.2499ZM48.6054 167.249C47.4318 167.249 46.3077 167.067 45.2332 166.704C44.1587 166.34 43.2578 165.819 42.5305 165.141L43.2991 163.554C44.1091 164.216 44.9439 164.695 45.8035 164.993C46.6631 165.29 47.5888 165.439 48.5806 165.439C49.8866 165.439 50.8784 165.166 51.5561 164.621C52.2339 164.059 52.5728 163.24 52.5728 162.166C52.5728 161.141 52.2256 160.364 51.5313 159.835C50.8371 159.29 49.8204 159.017 48.4815 159.017H45.8531V157.306H48.3079C49.465 157.306 50.3825 157.008 51.0602 156.413C51.738 155.818 52.0769 155.008 52.0769 153.983C52.0769 153.058 51.7628 152.355 51.1346 151.876C50.523 151.38 49.6386 151.132 48.4815 151.132C46.597 151.132 44.9687 151.801 43.5967 153.14L42.828 151.528C43.5058 150.834 44.3571 150.297 45.382 149.917C46.4069 149.52 47.4814 149.322 48.6054 149.322C50.3246 149.322 51.6719 149.718 52.6472 150.512C53.6225 151.305 54.1101 152.405 54.1101 153.81C54.1101 154.884 53.8043 155.81 53.1927 156.587C52.581 157.347 51.7545 157.868 50.7131 158.149V157.876C51.9529 158.075 52.9116 158.571 53.5894 159.364C54.2672 160.141 54.606 161.124 54.606 162.315C54.606 163.835 54.0688 165.042 52.9943 165.935C51.9363 166.811 50.4734 167.249 48.6054 167.249ZM67.8621 167.249C65.7462 167.249 64.1097 166.505 62.9525 165.017C61.8119 163.513 61.2416 161.414 61.2416 158.719C61.2416 156.703 61.5309 155 62.1095 153.611C62.688 152.206 63.5146 151.14 64.5891 150.413C65.6635 149.685 66.9612 149.322 68.482 149.322C69.3912 149.322 70.3086 149.512 71.2343 149.892C72.16 150.256 72.9204 150.768 73.5155 151.429L72.7717 153.016C72.1435 152.372 71.4575 151.9 70.7136 151.603C69.9697 151.289 69.2176 151.132 68.4572 151.132C66.7711 151.132 65.4734 151.735 64.5643 152.942C63.6716 154.132 63.2253 155.926 63.2253 158.323V160.629H63.0021C63.1178 159.686 63.3989 158.876 63.8452 158.199C64.308 157.504 64.9114 156.975 65.6553 156.612C66.3991 156.248 67.2257 156.066 68.1349 156.066C69.1928 156.066 70.1268 156.298 70.9368 156.76C71.7468 157.223 72.3832 157.876 72.8461 158.719C73.3089 159.546 73.5403 160.496 73.5403 161.571C73.5403 162.662 73.3006 163.637 72.8213 164.497C72.3419 165.356 71.6724 166.034 70.8128 166.53C69.9532 167.009 68.9696 167.249 67.8621 167.249ZM67.7133 165.513C68.4737 165.513 69.1432 165.356 69.7218 165.042C70.3169 164.712 70.7715 164.257 71.0856 163.678C71.4162 163.083 71.5815 162.406 71.5815 161.645C71.5815 160.885 71.4162 160.215 71.0856 159.637C70.7715 159.058 70.3169 158.604 69.7218 158.273C69.1432 157.942 68.4737 157.777 67.7133 157.777C66.9529 157.777 66.2834 157.942 65.7049 158.273C65.1263 158.604 64.6717 159.058 64.3411 159.637C64.027 160.215 63.87 160.885 63.87 161.645C63.87 162.406 64.027 163.083 64.3411 163.678C64.6717 164.257 65.1263 164.712 65.7049 165.042C66.2834 165.356 66.9529 165.513 67.7133 165.513ZM88.0114 167.026V163.232H79.68V161.744L88.3338 149.545H90.0199V161.571H92.6978V163.232H90.0199V167.026H88.0114ZM88.0114 161.571V151.975H88.5569L81.3661 162.092V161.571H88.0114Z" fill="white"/>
<path d="M128.585 167.026V165.265H132.701V151.305H133.792L128.981 154.306V152.248L133.271 149.545H134.759V165.265H138.627V167.026H128.585ZM151.362 167.249C150.189 167.249 149.065 167.067 147.99 166.704C146.916 166.34 146.015 165.819 145.287 165.141L146.056 163.554C146.866 164.216 147.701 164.695 148.56 164.993C149.42 165.29 150.346 165.439 151.337 165.439C152.643 165.439 153.635 165.166 154.313 164.621C154.991 164.059 155.33 163.24 155.33 162.166C155.33 161.141 154.982 160.364 154.288 159.835C153.594 159.29 152.577 159.017 151.238 159.017H148.61V157.306H151.065C152.222 157.306 153.139 157.008 153.817 156.413C154.495 155.818 154.834 155.008 154.834 153.983C154.834 153.058 154.52 152.355 153.891 151.876C153.28 151.38 152.395 151.132 151.238 151.132C149.354 151.132 147.726 151.801 146.354 153.14L145.585 151.528C146.263 150.834 147.114 150.297 148.139 149.917C149.164 149.52 150.238 149.322 151.362 149.322C153.081 149.322 154.429 149.718 155.404 150.512C156.379 151.305 156.867 152.405 156.867 153.81C156.867 154.884 156.561 155.81 155.95 156.587C155.338 157.347 154.511 157.868 153.47 158.149V157.876C154.71 158.075 155.668 158.571 156.346 159.364C157.024 160.141 157.363 161.124 157.363 162.315C157.363 163.835 156.826 165.042 155.751 165.935C154.693 166.811 153.23 167.249 151.362 167.249ZM172.181 167.026V163.232H163.85V161.744L172.503 149.545H174.19V161.571H176.867V163.232H174.19V167.026H172.181ZM172.181 161.571V151.975H172.727L165.536 162.092V161.571H172.181ZM188.958 167.249C188.198 167.249 187.454 167.166 186.727 167.001C185.999 166.836 185.313 166.596 184.668 166.282C184.04 165.968 183.487 165.588 183.007 165.141L183.776 163.554C184.586 164.199 185.412 164.679 186.255 164.993C187.098 165.29 187.999 165.439 188.958 165.439C190.214 165.439 191.198 165.1 191.909 164.422C192.62 163.745 192.975 162.852 192.975 161.744C192.975 160.604 192.636 159.67 191.958 158.942C191.281 158.215 190.338 157.851 189.132 157.851C188.272 157.851 187.503 158.025 186.826 158.372C186.148 158.703 185.561 159.223 185.065 159.934H183.577V149.545H193.942V151.281H185.561V158.248H185.016C185.462 157.554 186.074 157.025 186.851 156.661C187.644 156.281 188.537 156.091 189.528 156.091C190.653 156.091 191.62 156.322 192.43 156.785C193.256 157.248 193.893 157.893 194.339 158.719C194.785 159.546 195.008 160.513 195.008 161.62C195.008 162.728 194.76 163.712 194.264 164.571C193.785 165.414 193.091 166.075 192.182 166.555C191.289 167.018 190.214 167.249 188.958 167.249Z" fill="white"/>
<path d="M235.631 167.249C233.631 167.249 232.085 166.828 230.994 165.984C229.903 165.125 229.358 163.926 229.358 162.389C229.358 161.182 229.73 160.182 230.474 159.389C231.217 158.579 232.201 158.091 233.424 157.926V158.298C232.317 158.066 231.432 157.562 230.771 156.785C230.11 155.992 229.779 155.058 229.779 153.983C229.779 152.512 230.3 151.371 231.341 150.561C232.383 149.735 233.813 149.322 235.631 149.322C237.466 149.322 238.904 149.735 239.946 150.561C240.987 151.371 241.508 152.512 241.508 153.983C241.508 155.058 241.194 155.992 240.565 156.785C239.954 157.579 239.094 158.075 237.987 158.273V157.926C239.193 158.091 240.152 158.579 240.863 159.389C241.574 160.182 241.929 161.182 241.929 162.389C241.929 163.926 241.384 165.125 240.293 165.984C239.202 166.828 237.648 167.249 235.631 167.249ZM235.631 165.563C237.086 165.563 238.169 165.29 238.879 164.745C239.607 164.199 239.97 163.373 239.97 162.265C239.97 161.174 239.607 160.364 238.879 159.835C238.169 159.29 237.086 159.017 235.631 159.017C234.176 159.017 233.085 159.29 232.358 159.835C231.647 160.364 231.292 161.174 231.292 162.265C231.292 163.373 231.656 164.199 232.383 164.745C233.11 165.29 234.193 165.563 235.631 165.563ZM235.631 157.331C236.887 157.331 237.846 157.05 238.507 156.488C239.185 155.926 239.524 155.149 239.524 154.157C239.524 153.165 239.185 152.396 238.507 151.851C237.846 151.289 236.887 151.008 235.631 151.008C234.375 151.008 233.408 151.289 232.73 151.851C232.069 152.396 231.738 153.165 231.738 154.157C231.738 155.149 232.069 155.926 232.73 156.488C233.408 157.05 234.375 157.331 235.631 157.331ZM253.053 167.249C252.144 167.249 251.226 167.059 250.301 166.679C249.375 166.282 248.606 165.77 247.995 165.141L248.763 163.53C249.391 164.174 250.077 164.654 250.821 164.968C251.565 165.282 252.317 165.439 253.078 165.439C254.747 165.439 256.028 164.844 256.921 163.654C257.83 162.447 258.285 160.645 258.285 158.248V155.942H258.533C258.434 156.868 258.144 157.678 257.665 158.372C257.202 159.066 256.599 159.595 255.855 159.959C255.127 160.323 254.309 160.505 253.4 160.505C252.342 160.505 251.4 160.273 250.573 159.81C249.763 159.347 249.127 158.694 248.664 157.851C248.201 157.008 247.97 156.058 247.97 155C247.97 153.892 248.209 152.917 248.689 152.074C249.185 151.214 249.854 150.545 250.697 150.066C251.557 149.57 252.54 149.322 253.648 149.322C255.78 149.322 257.417 150.066 258.558 151.553C259.715 153.041 260.293 155.14 260.293 157.851C260.293 159.852 260.004 161.554 259.425 162.959C258.847 164.364 258.02 165.431 256.946 166.158C255.871 166.885 254.574 167.249 253.053 167.249ZM253.822 158.794C254.582 158.794 255.251 158.628 255.83 158.298C256.409 157.967 256.855 157.513 257.169 156.934C257.5 156.355 257.665 155.686 257.665 154.926C257.665 154.149 257.5 153.471 257.169 152.892C256.855 152.314 256.409 151.859 255.83 151.528C255.251 151.198 254.582 151.033 253.822 151.033C253.061 151.033 252.383 151.198 251.788 151.528C251.21 151.859 250.755 152.314 250.425 152.892C250.11 153.471 249.953 154.149 249.953 154.926C249.953 155.686 250.11 156.355 250.425 156.934C250.755 157.513 251.21 157.967 251.788 158.298C252.383 158.628 253.061 158.794 253.822 158.794ZM272.706 167.249C271.533 167.249 270.409 167.067 269.334 166.704C268.26 166.34 267.359 165.819 266.631 165.141L267.4 163.554C268.21 164.216 269.045 164.695 269.904 164.993C270.764 165.29 271.69 165.439 272.681 165.439C273.987 165.439 274.979 165.166 275.657 164.621C276.335 164.059 276.674 163.24 276.674 162.166C276.674 161.141 276.326 160.364 275.632 159.835C274.938 159.29 273.921 159.017 272.582 159.017H269.954V157.306H272.409C273.566 157.306 274.483 157.008 275.161 156.413C275.839 155.818 276.178 155.008 276.178 153.983C276.178 153.058 275.864 152.355 275.235 151.876C274.624 151.38 273.739 151.132 272.582 151.132C270.698 151.132 269.07 151.801 267.698 153.14L266.929 151.528C267.607 150.834 268.458 150.297 269.483 149.917C270.508 149.52 271.582 149.322 272.706 149.322C274.425 149.322 275.773 149.718 276.748 150.512C277.723 151.305 278.211 152.405 278.211 153.81C278.211 154.884 277.905 155.81 277.294 156.587C276.682 157.347 275.855 157.868 274.814 158.149V157.876C276.054 158.075 277.012 158.571 277.69 159.364C278.368 160.141 278.707 161.124 278.707 162.315C278.707 163.835 278.17 165.042 277.095 165.935C276.037 166.811 274.574 167.249 272.706 167.249ZM286.086 167.026V165.489L292.285 159.017C293.095 158.174 293.699 157.372 294.095 156.612C294.509 155.835 294.715 155.033 294.715 154.206C294.715 153.198 294.401 152.438 293.773 151.925C293.145 151.396 292.236 151.132 291.046 151.132C290.12 151.132 289.26 151.297 288.467 151.628C287.69 151.942 286.938 152.446 286.21 153.14L285.466 151.528C286.128 150.867 286.971 150.338 287.996 149.942C289.021 149.528 290.103 149.322 291.244 149.322C293.013 149.322 294.376 149.735 295.335 150.561C296.294 151.371 296.773 152.529 296.773 154.033C296.773 155.14 296.501 156.198 295.955 157.207C295.426 158.199 294.649 159.223 293.624 160.281L288.144 165.836V165.265H297.517V167.026H286.086Z" fill="white"/>
<path d="M338.387 167.249C336.387 167.249 334.841 166.828 333.75 165.984C332.659 165.125 332.114 163.926 332.114 162.389C332.114 161.182 332.486 160.182 333.229 159.389C333.973 158.579 334.957 158.091 336.18 157.926V158.298C335.073 158.066 334.188 157.562 333.527 156.785C332.866 155.992 332.535 155.058 332.535 153.983C332.535 152.512 333.056 151.371 334.097 150.561C335.139 149.735 336.569 149.322 338.387 149.322C340.222 149.322 341.66 149.735 342.701 150.561C343.743 151.371 344.264 152.512 344.264 153.983C344.264 155.058 343.95 155.992 343.321 156.785C342.71 157.579 341.85 158.075 340.743 158.273V157.926C341.949 158.091 342.908 158.579 343.619 159.389C344.33 160.182 344.685 161.182 344.685 162.389C344.685 163.926 344.14 165.125 343.049 165.984C341.958 166.828 340.404 167.249 338.387 167.249ZM338.387 165.563C339.842 165.563 340.924 165.29 341.635 164.745C342.363 164.199 342.726 163.373 342.726 162.265C342.726 161.174 342.363 160.364 341.635 159.835C340.924 159.29 339.842 159.017 338.387 159.017C336.932 159.017 335.841 159.29 335.114 159.835C334.403 160.364 334.048 161.174 334.048 162.265C334.048 163.373 334.411 164.199 335.139 164.745C335.866 165.29 336.949 165.563 338.387 165.563ZM338.387 157.331C339.643 157.331 340.602 157.05 341.263 156.488C341.941 155.926 342.28 155.149 342.28 154.157C342.28 153.165 341.941 152.396 341.263 151.851C340.602 151.289 339.643 151.008 338.387 151.008C337.131 151.008 336.164 151.289 335.486 151.851C334.825 152.396 334.494 153.165 334.494 154.157C334.494 155.149 334.825 155.926 335.486 156.488C336.164 157.05 337.131 157.331 338.387 157.331ZM356.875 167.249C355.701 167.249 354.577 167.067 353.503 166.704C352.428 166.34 351.527 165.819 350.8 165.141L351.569 163.554C352.379 164.216 353.213 164.695 354.073 164.993C354.933 165.29 355.858 165.439 356.85 165.439C358.156 165.439 359.148 165.166 359.826 164.621C360.503 164.059 360.842 163.24 360.842 162.166C360.842 161.141 360.495 160.364 359.801 159.835C359.107 159.29 358.09 159.017 356.751 159.017H354.123V157.306H356.577C357.735 157.306 358.652 157.008 359.33 156.413C360.008 155.818 360.346 155.008 360.346 153.983C360.346 153.058 360.032 152.355 359.404 151.876C358.793 151.38 357.908 151.132 356.751 151.132C354.867 151.132 353.238 151.801 351.866 153.14L351.098 151.528C351.775 150.834 352.627 150.297 353.652 149.917C354.676 149.52 355.751 149.322 356.875 149.322C358.594 149.322 359.941 149.718 360.917 150.512C361.892 151.305 362.38 152.405 362.38 153.81C362.38 154.884 362.074 155.81 361.462 156.587C360.851 157.347 360.024 157.868 358.983 158.149V157.876C360.222 158.075 361.181 158.571 361.859 159.364C362.537 160.141 362.876 161.124 362.876 162.315C362.876 163.835 362.338 165.042 361.264 165.935C360.206 166.811 358.743 167.249 356.875 167.249ZM370.925 167.026L379.529 150.413V151.305H369.759V149.545H381.388V151.082L373.181 167.026H370.925ZM394.149 167.249C392.148 167.249 390.603 166.828 389.512 165.984C388.421 165.125 387.875 163.926 387.875 162.389C387.875 161.182 388.247 160.182 388.991 159.389C389.735 158.579 390.718 158.091 391.942 157.926V158.298C390.834 158.066 389.95 157.562 389.289 156.785C388.627 155.992 388.297 155.058 388.297 153.983C388.297 152.512 388.817 151.371 389.859 150.561C390.9 149.735 392.33 149.322 394.149 149.322C395.983 149.322 397.422 149.735 398.463 150.561C399.504 151.371 400.025 152.512 400.025 153.983C400.025 155.058 399.711 155.992 399.083 156.785C398.471 157.579 397.612 158.075 396.504 158.273V157.926C397.711 158.091 398.67 158.579 399.38 159.389C400.091 160.182 400.447 161.182 400.447 162.389C400.447 163.926 399.901 165.125 398.81 165.984C397.719 166.828 396.165 167.249 394.149 167.249ZM394.149 165.563C395.603 165.563 396.686 165.29 397.397 164.745C398.124 164.199 398.488 163.373 398.488 162.265C398.488 161.174 398.124 160.364 397.397 159.835C396.686 159.29 395.603 159.017 394.149 159.017C392.694 159.017 391.603 159.29 390.875 159.835C390.165 160.364 389.809 161.174 389.809 162.265C389.809 163.373 390.173 164.199 390.9 164.745C391.628 165.29 392.71 165.563 394.149 165.563ZM394.149 157.331C395.405 157.331 396.364 157.05 397.025 156.488C397.703 155.926 398.041 155.149 398.041 154.157C398.041 153.165 397.703 152.396 397.025 151.851C396.364 151.289 395.405 151.008 394.149 151.008C392.892 151.008 391.925 151.289 391.247 151.851C390.586 152.396 390.256 153.165 390.256 154.157C390.256 155.149 390.586 155.926 391.247 156.488C391.925 157.05 392.892 157.331 394.149 157.331Z" fill="white"/>
<path d="M28.5305 220.722C27.5965 220.722 26.7948 220.536 26.1253 220.165C25.4558 219.793 24.9392 219.272 24.5756 218.602C24.2202 217.925 24.0424 217.127 24.0424 216.21C24.0424 215.292 24.2202 214.499 24.5756 213.829C24.9392 213.16 25.4558 212.639 26.1253 212.267C26.7948 211.895 27.5965 211.709 28.5305 211.709C29.1339 211.709 29.6835 211.796 30.1794 211.97C30.6753 212.135 31.0969 212.379 31.444 212.701L30.8365 214.226C30.4563 213.928 30.0926 213.718 29.7455 213.594C29.4066 213.47 29.0223 213.408 28.5925 213.408C27.7742 213.408 27.1461 213.651 26.708 214.139C26.2782 214.619 26.0633 215.309 26.0633 216.21C26.0633 217.111 26.2782 217.805 26.708 218.292C27.1461 218.78 27.7742 219.024 28.5925 219.024C29.0223 219.024 29.4066 218.962 29.7455 218.838C30.0926 218.714 30.4563 218.503 30.8365 218.206L31.444 219.731C31.0969 220.045 30.6753 220.289 30.1794 220.462C29.6835 220.636 29.1339 220.722 28.5305 220.722ZM33.0914 220.586L37.1083 211.846H38.7076L42.7741 220.586H40.8153L39.7614 218.156L40.5177 218.689H35.323L36.0917 218.156L35.0378 220.586H33.0914ZM37.9018 213.879L36.3024 217.673L35.9677 217.201H39.873L39.5879 217.673L37.9513 213.879H37.9018ZM45.0155 220.586V211.846H48.9829C49.9664 211.846 50.7268 212.081 51.2641 212.552C51.8013 213.015 52.0699 213.664 52.0699 214.499C52.0699 215.044 51.946 215.515 51.698 215.912C51.4583 216.301 51.1112 216.602 50.6566 216.817C50.2103 217.024 49.673 217.127 49.0449 217.127L49.1936 216.854H49.7019C50.0574 216.854 50.3714 216.949 50.6442 217.139C50.9252 217.33 51.1566 217.606 51.3385 217.97L52.6403 220.586H50.5078L49.1564 217.772C49.0573 217.532 48.9002 217.375 48.6853 217.301C48.4787 217.218 48.239 217.177 47.9662 217.177H46.9496V220.586H45.0155ZM46.9496 215.788H48.6481C49.1523 215.788 49.5366 215.685 49.8011 215.478C50.0656 215.271 50.1979 214.966 50.1979 214.561C50.1979 214.156 50.0656 213.854 49.8011 213.656C49.5366 213.449 49.1523 213.346 48.6481 213.346H46.9496V215.788ZM55.2811 220.586V211.846H58.6161C59.6328 211.846 60.4924 212.019 61.1949 212.366C61.8975 212.713 62.4264 213.213 62.7818 213.866C63.1455 214.511 63.3273 215.292 63.3273 216.21C63.3273 217.119 63.1455 217.9 62.7818 218.553C62.4264 219.206 61.8975 219.71 61.1949 220.065C60.4924 220.412 59.6328 220.586 58.6161 220.586H55.2811ZM57.2152 218.999H58.5046C59.4799 218.999 60.2031 218.772 60.6742 218.317C61.1536 217.854 61.3933 217.152 61.3933 216.21C61.3933 215.259 61.1536 214.557 60.6742 214.102C60.2031 213.647 59.4799 213.42 58.5046 213.42H57.2152V218.999ZM66.3336 220.586V211.846H68.2677V215.354H72.2722V211.846H74.2187V220.586H72.2722V216.953H68.2677V220.586H66.3336ZM77.2227 216.21C77.2227 215.3 77.3921 214.511 77.731 213.842C78.0781 213.164 78.5741 212.639 79.2187 212.267C79.8634 211.895 80.628 211.709 81.5124 211.709C82.3967 211.709 83.1613 211.895 83.806 212.267C84.4507 212.639 84.9466 213.164 85.2937 213.842C85.6491 214.511 85.8268 215.296 85.8268 216.197C85.8268 217.115 85.6491 217.912 85.2937 218.59C84.9466 219.259 84.4507 219.784 83.806 220.165C83.1613 220.536 82.3967 220.722 81.5124 220.722C80.628 220.722 79.8634 220.536 79.2187 220.165C78.5823 219.784 78.0905 219.255 77.7434 218.578C77.3963 217.9 77.2227 217.111 77.2227 216.21ZM79.2435 216.21C79.2435 217.111 79.4295 217.817 79.8014 218.33C80.1816 218.834 80.752 219.086 81.5124 219.086C82.2562 219.086 82.8224 218.834 83.2109 218.33C83.5993 217.817 83.7936 217.111 83.7936 216.21C83.7936 215.3 83.5993 214.598 83.2109 214.102C82.8307 213.598 82.2645 213.346 81.5124 213.346C80.752 213.346 80.1816 213.598 79.8014 214.102C79.4295 214.598 79.2435 215.3 79.2435 216.21ZM88.8262 220.586V211.846H90.7602V218.962H94.7028V220.586H88.8262ZM97.3725 220.586V211.846H100.708C101.724 211.846 102.584 212.019 103.286 212.366C103.989 212.713 104.518 213.213 104.873 213.866C105.237 214.511 105.419 215.292 105.419 216.21C105.419 217.119 105.237 217.9 104.873 218.553C104.518 219.206 103.989 219.71 103.286 220.065C102.584 220.412 101.724 220.586 100.708 220.586H97.3725ZM99.3066 218.999H100.596C101.571 218.999 102.294 218.772 102.766 218.317C103.245 217.854 103.485 217.152 103.485 216.21C103.485 215.259 103.245 214.557 102.766 214.102C102.294 213.647 101.571 213.42 100.596 213.42H99.3066V218.999ZM108.425 220.586V211.846H114.5V213.346H110.272V215.391H114.202V216.904H110.272V219.086H114.5V220.586H108.425ZM117.335 220.586V211.846H121.302C122.285 211.846 123.046 212.081 123.583 212.552C124.12 213.015 124.389 213.664 124.389 214.499C124.389 215.044 124.265 215.515 124.017 215.912C123.777 216.301 123.43 216.602 122.976 216.817C122.529 217.024 121.992 217.127 121.364 217.127L121.513 216.854H122.021C122.376 216.854 122.69 216.949 122.963 217.139C123.244 217.33 123.476 217.606 123.657 217.97L124.959 220.586H122.827L121.475 217.772C121.376 217.532 121.219 217.375 121.004 217.301C120.798 217.218 120.558 217.177 120.285 217.177H119.269V220.586H117.335ZM119.269 215.788H120.967C121.471 215.788 121.856 215.685 122.12 215.478C122.385 215.271 122.517 214.966 122.517 214.561C122.517 214.156 122.385 213.854 122.12 213.656C121.856 213.449 121.471 213.346 120.967 213.346H119.269V215.788ZM132.587 220.586V211.846H134.025L138.773 217.883H138.439V211.846H140.236V220.586H138.798L134.062 214.548H134.385V220.586H132.587ZM142.465 220.586L146.482 211.846H148.081L152.148 220.586H150.189L149.135 218.156L149.891 218.689H144.697L145.465 218.156L144.412 220.586H142.465ZM147.275 213.879L145.676 217.673L145.341 217.201H149.247L148.962 217.673L147.325 213.879H147.275ZM154.402 220.586V211.846H156.1L159.138 218.664H158.741L161.778 211.846H163.465V220.586H161.704V214.647H162.2L159.485 220.586H158.369L155.641 214.647H156.162V220.586H154.402ZM166.749 220.586V211.846H172.824V213.346H168.597V215.391H172.527V216.904H168.597V219.086H172.824V220.586H166.749Z" fill="white"/>
<path d="M27.1559 243.633C26.3655 243.633 25.6496 243.536 25.008 243.341C24.3664 243.136 23.8085 242.848 23.3343 242.476L23.8224 241.332C24.1386 241.574 24.464 241.774 24.7988 241.932C25.1428 242.09 25.5054 242.211 25.8867 242.294C26.2772 242.369 26.7003 242.406 27.1559 242.406C27.937 242.406 28.5088 242.267 28.8715 241.988C29.2434 241.709 29.4294 241.341 29.4294 240.886C29.4294 240.495 29.2992 240.193 29.0388 239.979C28.7878 239.765 28.3415 239.593 27.6999 239.463L26.1796 239.156C25.2776 238.97 24.6035 238.668 24.1572 238.25C23.7201 237.822 23.5016 237.241 23.5016 236.506C23.5016 235.911 23.6597 235.39 23.9758 234.944C24.292 234.498 24.729 234.154 25.2869 233.912C25.8541 233.67 26.5143 233.549 27.2675 233.549C27.9649 233.549 28.6065 233.652 29.1923 233.856C29.7781 234.051 30.2709 234.344 30.6707 234.735L30.1965 235.837C29.7781 235.474 29.3317 235.209 28.8575 235.042C28.3833 234.865 27.844 234.777 27.2396 234.777C26.5236 234.777 25.9611 234.925 25.5519 235.223C25.1521 235.521 24.9522 235.925 24.9522 236.436C24.9522 236.846 25.0777 237.166 25.3288 237.399C25.5891 237.631 26.0168 237.808 26.6119 237.929L28.1322 238.222C29.0714 238.417 29.7641 238.719 30.2104 239.128C30.6568 239.528 30.8799 240.081 30.8799 240.788C30.8799 241.355 30.7265 241.853 30.4197 242.281C30.1221 242.708 29.6944 243.043 29.1365 243.285C28.5786 243.517 27.9184 243.633 27.1559 243.633ZM35.0337 243.633C34.1876 243.633 33.5506 243.406 33.1229 242.95C32.7045 242.485 32.4952 241.774 32.4952 240.816V236.478H33.9039V240.788C33.9039 241.374 34.0248 241.806 34.2666 242.085C34.5083 242.364 34.8756 242.504 35.3685 242.504C35.9264 242.504 36.3773 242.318 36.7214 241.946C37.0654 241.574 37.2374 241.081 37.2374 240.467V236.478H38.6461V243.508H37.2793V242.002H37.4606C37.2653 242.522 36.9538 242.927 36.5261 243.215C36.0984 243.494 35.6009 243.633 35.0337 243.633ZM40.7095 243.508V238.166C40.7095 237.896 40.6956 237.622 40.6677 237.343C40.6491 237.055 40.6258 236.767 40.5979 236.478H41.9648L42.0903 237.957H41.923C42.1368 237.436 42.4669 237.041 42.9133 236.771C43.3596 236.492 43.8756 236.353 44.4614 236.353C45.289 236.353 45.912 236.581 46.3304 237.036C46.7582 237.492 46.972 238.199 46.972 239.156V243.508H45.5633V239.24C45.5633 238.617 45.4378 238.171 45.1867 237.901C44.945 237.622 44.573 237.483 44.0709 237.483C43.4758 237.483 43.0016 237.669 42.6483 238.04C42.2949 238.403 42.1182 238.896 42.1182 239.519V243.508H40.7095ZM48.9773 243.508V236.478H50.386V243.508H48.9773ZM48.8657 235.014V233.549H50.4976V235.014H48.8657ZM55.7004 243.633C54.566 243.633 53.6734 243.313 53.0225 242.671C52.3716 242.029 52.0461 241.141 52.0461 240.007C52.0461 239.273 52.1856 238.631 52.4646 238.082C52.7528 237.534 53.148 237.111 53.6501 236.813C54.1615 236.506 54.752 236.353 55.4215 236.353C56.0816 236.353 56.6349 236.492 57.0812 236.771C57.5276 237.05 57.8669 237.445 58.0994 237.957C58.3319 238.459 58.4481 239.054 58.4481 239.742V240.188H53.148V239.379H57.4857L57.2486 239.561C57.2486 238.863 57.0905 238.324 56.7744 237.943C56.4675 237.552 56.0212 237.357 55.4354 237.357C54.7845 237.357 54.2824 237.585 53.9291 238.04C53.5757 238.487 53.399 239.105 53.399 239.895V240.035C53.399 240.863 53.599 241.486 53.9988 241.904C54.4079 242.322 54.9844 242.532 55.7283 242.532C56.1374 242.532 56.5187 242.476 56.872 242.364C57.2347 242.243 57.5787 242.048 57.9041 241.778L58.3644 242.741C58.039 243.029 57.6438 243.252 57.1789 243.41C56.7139 243.559 56.2211 243.633 55.7004 243.633ZM63.9086 243.508V233.675H68.0789C69.1297 233.675 69.934 233.931 70.4919 234.442C71.0591 234.944 71.3427 235.641 71.3427 236.534C71.3427 237.427 71.0591 238.129 70.4919 238.64C69.934 239.152 69.1297 239.407 68.0789 239.407H65.3592V243.508H63.9086ZM65.3592 238.25H67.9255C68.5857 238.25 69.0832 238.101 69.4179 237.803C69.7527 237.506 69.92 237.083 69.92 236.534C69.92 235.995 69.7527 235.576 69.4179 235.279C69.0832 234.981 68.5857 234.832 67.9255 234.832H65.3592V238.25ZM72.9635 243.508V233.242H74.3722V237.971H74.1769C74.3815 237.441 74.7116 237.041 75.1672 236.771C75.6228 236.492 76.1482 236.353 76.7433 236.353C77.5801 236.353 78.2031 236.585 78.6122 237.05C79.0214 237.506 79.2259 238.199 79.2259 239.128V243.508H77.8172V239.212C77.8172 238.608 77.6964 238.171 77.4546 237.901C77.2221 237.622 76.8502 237.483 76.3388 237.483C75.7437 237.483 75.2648 237.669 74.9022 238.04C74.5488 238.403 74.3722 238.887 74.3722 239.491V243.508H72.9635ZM83.9231 243.633C83.3001 243.633 82.7562 243.489 82.2913 243.201C81.8263 242.913 81.4637 242.494 81.2033 241.946C80.9523 241.397 80.8268 240.746 80.8268 239.993C80.8268 239.231 80.9523 238.58 81.2033 238.04C81.4637 237.501 81.8263 237.087 82.2913 236.799C82.7562 236.502 83.3001 236.353 83.9231 236.353C84.5368 236.353 85.0715 236.506 85.5271 236.813C85.9827 237.12 86.2849 237.538 86.4337 238.068H86.2803L86.4198 236.478H87.7866C87.7587 236.767 87.7308 237.055 87.703 237.343C87.6844 237.622 87.6751 237.896 87.6751 238.166V243.508H86.2663V241.946H86.4198C86.271 242.467 85.9641 242.88 85.4992 243.187C85.0436 243.485 84.5182 243.633 83.9231 243.633ZM84.2718 242.532C84.8762 242.532 85.3597 242.318 85.7224 241.89C86.0943 241.462 86.2803 240.83 86.2803 239.993C86.2803 239.156 86.0943 238.529 85.7224 238.11C85.3597 237.682 84.8762 237.469 84.2718 237.469C83.6581 237.469 83.1653 237.682 82.7934 238.11C82.4307 238.529 82.2494 239.156 82.2494 239.993C82.2494 240.83 82.4307 241.462 82.7934 241.89C83.156 242.318 83.6488 242.532 84.2718 242.532ZM89.7306 243.508V238.166C89.7306 237.896 89.7166 237.622 89.6887 237.343C89.6701 237.055 89.6469 236.767 89.619 236.478H90.9859L91.1114 237.957H90.944C91.1393 237.445 91.4369 237.05 91.8367 236.771C92.2458 236.492 92.734 236.353 93.3012 236.353C93.8777 236.353 94.3473 236.492 94.7099 236.771C95.0818 237.041 95.3375 237.459 95.477 238.027H95.2539C95.4398 237.515 95.756 237.111 96.2023 236.813C96.6486 236.506 97.1647 236.353 97.7505 236.353C98.5316 236.353 99.1174 236.581 99.5079 237.036C99.8984 237.492 100.094 238.199 100.094 239.156V243.508H98.685V239.226C98.685 238.612 98.578 238.171 98.3642 237.901C98.1596 237.622 97.8249 237.483 97.36 237.483C96.8206 237.483 96.3929 237.669 96.0768 238.04C95.7606 238.412 95.6025 238.915 95.6025 239.547V243.508H94.1938V239.226C94.1938 238.612 94.0869 238.171 93.873 237.901C93.6685 237.622 93.3337 237.483 92.8688 237.483C92.3295 237.483 91.9064 237.669 91.5996 238.04C91.2927 238.412 91.1393 238.915 91.1393 239.547V243.508H89.7306Z" fill="white"/>
<path d="M386.609 246.05C385.223 246.05 384.154 245.521 383.404 244.464C382.666 243.396 382.296 241.867 382.296 239.879C382.296 237.856 382.666 236.327 383.404 235.293C384.154 234.247 385.223 233.725 386.609 233.725C388.007 233.725 389.075 234.247 389.814 235.293C390.553 236.327 390.922 237.85 390.922 239.862C390.922 241.862 390.547 243.396 389.797 244.464C389.058 245.521 387.996 246.05 386.609 246.05ZM386.609 244.567C387.484 244.567 388.132 244.186 388.553 243.424C388.984 242.663 389.2 241.475 389.2 239.862C389.2 238.236 388.984 237.054 388.553 236.316C388.132 235.566 387.484 235.191 386.609 235.191C385.745 235.191 385.098 235.566 384.666 236.316C384.234 237.054 384.018 238.231 384.018 239.845C384.018 241.47 384.234 242.663 384.666 243.424C385.109 244.186 385.757 244.567 386.609 244.567ZM398.024 246.05C397.501 246.05 396.984 245.993 396.473 245.879C395.961 245.766 395.484 245.606 395.041 245.402C394.598 245.186 394.211 244.93 393.882 244.635L394.495 243.288C395.041 243.709 395.598 244.027 396.166 244.243C396.746 244.447 397.354 244.55 397.99 244.55C398.797 244.55 399.428 244.339 399.882 243.919C400.348 243.498 400.581 242.936 400.581 242.231C400.581 241.504 400.36 240.918 399.916 240.475C399.484 240.021 398.882 239.793 398.109 239.793C397.575 239.793 397.087 239.901 396.643 240.117C396.211 240.333 395.831 240.663 395.501 241.106H394.274V233.878H401.553V235.361H395.961V239.691H395.518C395.825 239.259 396.234 238.924 396.746 238.685C397.268 238.447 397.854 238.327 398.501 238.327C399.274 238.327 399.945 238.486 400.513 238.805C401.081 239.123 401.519 239.566 401.826 240.134C402.144 240.703 402.303 241.373 402.303 242.146C402.303 242.919 402.127 243.601 401.774 244.192C401.434 244.771 400.939 245.226 400.291 245.555C399.655 245.885 398.899 246.05 398.024 246.05ZM405.024 246.868H403.575L408.041 233.111H409.49L405.024 246.868ZM411.532 245.896V244.584L415.658 240.271C416.192 239.714 416.59 239.191 416.851 238.702C417.113 238.214 417.243 237.708 417.243 237.185C417.243 236.537 417.039 236.049 416.63 235.719C416.232 235.39 415.652 235.225 414.891 235.225C414.288 235.225 413.72 235.333 413.186 235.549C412.663 235.765 412.158 236.094 411.669 236.537L411.055 235.191C411.532 234.747 412.123 234.395 412.828 234.134C413.544 233.861 414.3 233.725 415.095 233.725C416.345 233.725 417.306 234.009 417.976 234.577C418.658 235.145 418.999 235.958 418.999 237.015C418.999 237.765 418.817 238.486 418.454 239.18C418.09 239.862 417.544 240.566 416.817 241.294L413.254 244.89V244.413H419.493V245.896H411.532ZM427.704 245.896V243.407H422.146V242.146L427.993 233.878H429.425V242.027H431.215V243.407H429.425V245.896H427.704ZM427.704 242.027V235.975H428.096L423.527 242.453V242.027H427.704Z" fill="white"/>
<path d="M334.065 221.586L329.643 211.753H331.986L335.348 219.619H334.664L338.026 211.753H340.285L335.864 221.586H334.065ZM340.743 221.586L345.262 211.753H347.062L351.636 221.586H349.433L348.247 218.852L349.098 219.452H343.254L344.119 218.852L342.933 221.586H340.743ZM346.155 214.04L344.356 218.308L343.979 217.778H348.373L348.052 218.308L346.211 214.04H346.155ZM354.158 221.586V211.753H356.334V219.759H360.769V221.586H354.158ZM363.773 221.586V211.753H365.949V221.586H363.773ZM369.614 221.586V211.753H373.366C374.51 211.753 375.477 211.948 376.267 212.339C377.058 212.729 377.653 213.292 378.053 214.026C378.462 214.752 378.666 215.63 378.666 216.663C378.666 217.685 378.462 218.564 378.053 219.299C377.653 220.033 377.058 220.6 376.267 221C375.477 221.391 374.51 221.586 373.366 221.586H369.614ZM371.79 219.801H373.241C374.338 219.801 375.152 219.545 375.682 219.034C376.221 218.513 376.491 217.723 376.491 216.663C376.491 215.593 376.221 214.803 375.682 214.291C375.152 213.78 374.338 213.524 373.241 213.524H371.79V219.801ZM389.932 221.586V213.524H386.808V211.753H395.232V213.524H392.108V221.586H389.932ZM398.09 221.586V211.753H400.266V215.7H404.771V211.753H406.961V221.586H404.771V217.499H400.266V221.586H398.09ZM410.634 221.586V211.753H415.097C416.203 211.753 417.059 212.018 417.663 212.548C418.268 213.069 418.57 213.799 418.57 214.738C418.57 215.351 418.43 215.881 418.151 216.328C417.882 216.765 417.491 217.104 416.98 217.346C416.478 217.578 415.873 217.695 415.166 217.695L415.334 217.388H415.906C416.306 217.388 416.659 217.495 416.966 217.709C417.282 217.922 417.542 218.234 417.747 218.643L419.211 221.586H416.812L415.292 218.42C415.18 218.15 415.004 217.974 414.762 217.89C414.53 217.797 414.26 217.75 413.953 217.75H412.809V221.586H410.634ZM412.809 216.188H414.72C415.287 216.188 415.72 216.072 416.017 215.84C416.315 215.607 416.464 215.263 416.464 214.808C416.464 214.352 416.315 214.012 416.017 213.789C415.72 213.557 415.287 213.441 414.72 213.441H412.809V216.188ZM426.408 221.739C424.967 221.739 423.893 221.381 423.186 220.666C422.48 219.95 422.126 218.885 422.126 217.472V211.753H424.302V217.485C424.302 218.276 424.47 218.876 424.804 219.285C425.148 219.694 425.683 219.898 426.408 219.898C427.115 219.898 427.64 219.694 427.984 219.285C428.338 218.876 428.514 218.276 428.514 217.485V211.753H430.662V217.472C430.662 218.885 430.304 219.95 429.588 220.666C428.882 221.381 427.822 221.739 426.408 221.739Z" fill="white"/>
<path d="M383.827 52.3664L387.657 30.8223H393.642L389.931 52.3664H383.827Z" fill="white"/>
<path d="M383.827 52.3664L388.734 30.8223H393.642L389.931 52.3664H383.827Z" fill="white"/>
<path d="M411.596 31.0615C410.399 30.5828 408.484 30.104 406.09 30.104C400.106 30.104 395.797 33.0962 395.797 37.4051C395.797 40.6367 398.789 42.3124 401.183 43.3896C403.577 44.4668 404.295 45.1849 404.295 46.1424C404.295 47.5787 402.38 48.2969 400.704 48.2969C398.31 48.2969 396.994 47.9378 394.959 47.1L394.121 46.7409L393.283 51.6482C394.719 52.2466 397.353 52.8451 400.106 52.8451C406.449 52.8451 410.638 49.8528 410.638 45.3046C410.638 42.7911 409.082 40.8761 405.492 39.3201C403.337 38.2429 402.021 37.6445 402.021 36.5673C402.021 35.6097 403.098 34.6522 405.492 34.6522C407.526 34.6522 408.963 35.0113 410.04 35.49L410.638 35.7294L411.596 31.0615Z" fill="white"/>
<path d="M411.596 31.0615C410.399 30.5828 408.484 30.104 406.09 30.104C400.106 30.104 396.874 33.0962 396.874 37.4051C396.874 40.6367 398.789 42.3124 401.183 43.3896C403.577 44.4668 404.295 45.1849 404.295 46.1424C404.295 47.5787 402.38 48.2969 400.704 48.2969C398.31 48.2969 396.994 47.9378 394.959 47.1L394.121 46.7409L393.283 51.6482C394.719 52.2466 397.353 52.8451 400.106 52.8451C406.449 52.8451 410.638 49.8528 410.638 45.3046C410.638 42.7911 409.082 40.8761 405.492 39.3201C403.337 38.2429 402.021 37.6445 402.021 36.5673C402.021 35.6097 403.098 34.6522 405.492 34.6522C407.526 34.6522 408.963 35.0113 410.04 35.49L410.638 35.7294L411.596 31.0615Z" fill="white"/>
<path d="M421.887 30.8223C420.451 30.8223 419.374 30.942 418.776 32.3782L409.799 52.3664H416.262L417.459 48.7757H425.119L425.837 52.3664H431.582L426.555 30.8223H421.887V30.8223ZM419.135 45.185C419.494 44.1078 421.528 38.8415 421.528 38.8415C421.528 38.8415 422.007 37.5249 422.366 36.6871L422.725 38.7218C422.725 38.7218 423.922 44.1078 424.162 45.3047H419.135V45.185Z" fill="white"/>
<path d="M423.324 30.8223C421.887 30.8223 420.81 30.942 420.212 32.3782L409.799 52.3664H416.262L417.459 48.7757H425.119L425.837 52.3664H431.582L426.555 30.8223H423.324V30.8223ZM419.135 45.185C419.613 43.9881 421.528 38.8415 421.528 38.8415C421.528 38.8415 422.007 37.5249 422.366 36.6871L422.725 38.7218C422.725 38.7218 423.922 44.1078 424.162 45.3047H419.135V45.185Z" fill="white"/>
<path d="M372.817 45.9028L372.218 42.7909C371.141 39.2002 367.67 35.2505 363.84 33.3354L369.226 52.4858H375.689L385.384 30.9417H378.921L372.817 45.9028Z" fill="white"/>
<path d="M372.817 45.9028L372.218 42.7909C371.141 39.2002 367.67 35.2505 363.84 33.3354L369.226 52.4858H375.689L385.384 30.9417H380.118L372.817 45.9028Z" fill="white"/>
<path d="M356.179 30.8223L357.256 31.0616C364.916 32.857 370.182 37.4052 372.217 42.7913L370.063 32.6176C369.704 31.1813 368.626 30.8223 367.31 30.8223H356.179V30.8223Z" fill="white"/>
<path d="M356.179 30.8223C363.839 32.6176 370.182 37.2855 372.217 42.6716L370.182 34.1736C369.823 32.7373 368.626 31.8995 367.31 31.8995L356.179 30.8223Z" fill="white"/>
<path d="M356.179 30.8223C363.839 32.6176 370.182 37.2855 372.217 42.6716L370.781 38.0037C370.422 36.5674 369.943 35.1311 368.267 34.5326L356.179 30.8223Z" fill="white"/>
<path d="M378.801 45.1853L374.731 41.1158L372.816 45.6641L372.337 42.6718C371.26 39.0811 367.789 35.1313 363.959 33.2163L369.345 52.3667H375.808L378.801 45.1853Z" fill="white"/>
<path d="M389.931 52.3677L384.785 47.1013L383.827 52.3677H389.931Z" fill="white"/>
<path d="M403.696 44.946C404.175 45.4248 404.414 45.7839 404.295 46.2626C404.295 47.6989 402.38 48.4171 400.704 48.4171C398.31 48.4171 396.994 48.058 394.959 47.2202L394.121 46.8611L393.283 51.7684C394.719 52.3668 397.353 52.9653 400.106 52.9653C403.936 52.9653 407.048 51.8881 408.843 49.973L403.696 44.946Z" fill="white"/>
<path d="M410.638 52.3659H416.263L417.46 48.7752H425.12L425.838 52.3659H431.583L429.549 43.6285L422.367 36.6865L422.726 38.6016C422.726 38.6016 423.923 43.9876 424.163 45.1845H419.136C419.614 43.9876 421.529 38.8409 421.529 38.8409C421.529 38.8409 422.008 37.5244 422.367 36.6865" fill="white"/>
<defs>
<linearGradient id="paint0_linear_415_2358" x1="0.460938" y1="133" x2="454.534" y2="133" gradientUnits="userSpaceOnUse">
<stop stop-color="#2193B0"/>
<stop offset="1" stop-color="#6DD5ED"/>
</linearGradient>
<linearGradient id="paint1_linear_415_2358" x1="47.6719" y1="61.487" x2="394.823" y2="61.487" gradientUnits="userSpaceOnUse">
<stop stop-color="#ACB6E5"/>
<stop offset="0.979167" stop-color="#86FDE8" stop-opacity="0.46"/>
</linearGradient>
<linearGradient id="paint2_linear_415_2358" x1="-50.918" y1="64.9585" x2="342.057" y2="64.9585" gradientUnits="userSpaceOnUse">
<stop stop-color="#9193D5"/>
<stop offset="0.5" stop-color="#20BDFF" stop-opacity="0.69"/>
<stop offset="1" stop-color="#A5FECB" stop-opacity="0.27"/>
</linearGradient>
</defs>
</svg>
