<svg width="785" height="65" viewBox="0 0 785 65" fill="none" xmlns="http://www.w3.org/2000/svg">
<mask id="mask0_47_2135" style="mask-type:luminance" maskUnits="userSpaceOnUse" x="356" y="9" width="61" height="46">
<path d="M416.562 47.4456C416.561 51.5827 413.208 54.9368 409.07 54.9368H364.122C359.985 54.9366 356.631 51.5826 356.631 47.4456V32.4622H416.562V47.4456ZM409.07 9.98853C413.208 9.98853 416.561 13.3424 416.562 17.4797V22.4739H356.631V17.4797C356.631 13.3426 359.985 9.98874 364.122 9.98853H409.07Z" fill="white"/>
</mask>
<g mask="url(#mask0_47_2135)">
<rect x="354.136" width="64.9248" height="64.9248" fill="#C8C7CC"/>
</g>
<mask id="mask1_47_2135" style="mask-type:luminance" maskUnits="userSpaceOnUse" x="7" y="2" width="51" height="61">
<path d="M32.4609 2.49701C46.252 2.49701 57.4324 13.6767 57.4326 27.4677C57.4326 35.887 52.9313 44.1388 45.5107 51.9716C42.9664 54.6573 40.2478 57.104 37.5283 59.2695C36.575 60.0286 35.6877 60.7002 34.8887 61.2773C34.4023 61.6286 34.0476 61.8738 33.8467 62.0078C33.0079 62.5669 31.9149 62.5669 31.0762 62.0078C30.8753 61.8738 30.5199 61.6288 30.0332 61.2773C29.2342 60.7003 28.3478 60.0286 27.3945 59.2695C24.675 57.1039 21.9556 54.6574 19.4111 51.9716C11.9907 44.1389 7.49023 35.8869 7.49023 27.4677C7.49044 13.6769 18.6701 2.49721 32.4609 2.49701ZM32.4619 17.4794C26.9456 17.4795 22.4738 21.9514 22.4736 27.4677C22.4736 32.9842 26.9455 37.4569 32.4619 37.457C37.9784 37.457 42.4502 32.9842 42.4502 27.4677C42.45 21.9514 37.9783 17.4794 32.4619 17.4794Z" fill="white"/>
</mask>
<g mask="url(#mask1_47_2135)">
<rect width="64.9248" height="64.9248" fill="#A46049"/>
</g>
<mask id="mask2_47_2135" style="mask-type:luminance" maskUnits="userSpaceOnUse" x="725" y="4" width="56" height="56">
<path d="M752.538 4.99426C767.708 4.99438 780.006 17.292 780.006 32.462C780.006 47.6322 767.708 59.9307 752.538 59.9308C737.368 59.9308 725.069 47.6323 725.069 32.462C725.07 17.292 737.368 4.99426 752.538 4.99426ZM765.365 22.255C764.101 20.8825 762.006 20.8824 760.741 22.255L748.597 35.4406L744.338 30.8165C743.074 29.4438 740.977 29.4439 739.713 30.8165C738.503 32.1304 738.503 34.2214 739.713 35.5353L746.284 42.67C747.549 44.0427 749.645 44.0428 750.909 42.67L765.365 26.9738C766.575 25.6599 766.575 23.5689 765.365 22.255Z" fill="white"/>
</mask>
<g mask="url(#mask2_47_2135)">
<rect x="720.075" width="64.9248" height="64.9248" fill="#C8C7CC"/>
</g>
<path d="M123.947 32.4624H303.966" stroke="#C8C7CC" stroke-width="5.90226" stroke-linecap="round" stroke-linejoin="round" stroke-dasharray="2.95 44.27"/>
<path d="M498.74 32.9543H687.612" stroke="#C8C7CC" stroke-width="5.90226" stroke-linecap="round" stroke-linejoin="round" stroke-dasharray="2.95 44.27"/>
</svg>
