<svg width="203" height="219" viewBox="0 0 203 219" fill="none" xmlns="http://www.w3.org/2000/svg">
<path d="M144.217 103.084C142.962 103.084 141.717 103.129 140.482 103.208L137.373 51.542H111.42V38.3515C111.42 17.2043 94.2154 0 73.0683 0C51.9215 0 34.7172 17.2043 34.7172 38.3515V51.542H8.73785L0.825195 193.229H96.0423C106.451 208.757 124.16 219 144.217 219C176.175 219 202.175 193 202.175 161.042C202.175 129.084 176.175 103.084 144.217 103.084ZM47.5492 38.3515C47.5492 24.2803 58.9971 12.832 73.0683 12.832C87.1394 12.832 98.5877 24.2799 98.5877 38.3515V51.542H47.5492V38.3515ZM66.9042 91.4304L73.3736 95.7257V115.97H60.4347V95.7257L66.9042 91.4304ZM14.3938 180.397L20.8731 64.374H34.7172V83.729H47.5492V64.374H60.4881V80.2875L47.6026 88.8421V128.802H86.2057V88.8421L73.3202 80.2875V64.374H98.5877V83.729H111.42V64.374H125.29L127.762 105.467C103.794 112.576 86.2591 134.798 86.2591 161.042C86.2591 167.827 87.435 174.341 89.5869 180.397H14.3938ZM144.217 206.168C119.335 206.168 99.0912 185.925 99.0912 161.042C99.0912 136.159 119.335 115.916 144.217 115.916C169.1 115.916 189.343 136.159 189.343 161.042C189.343 185.925 169.1 206.168 144.217 206.168Z" fill="#33302E"/>
</svg>
