<svg width="151" height="151" viewBox="0 0 151 151" fill="none" xmlns="http://www.w3.org/2000/svg">
<circle cx="75.1702" cy="75.7757" r="75.1702" fill="#FAFAFA"/>
<path d="M81.1526 109.625C81.4822 109.296 81.9396 109.106 82.4058 109.106C82.8721 109.106 83.3295 109.296 83.6593 109.625C83.989 109.955 84.1787 110.413 84.1787 110.879C84.1787 111.345 83.9892 111.803 83.6593 112.132C83.3295 112.462 82.8721 112.652 82.4058 112.652C81.9396 112.652 81.4822 112.462 81.1526 112.132C80.8226 111.803 80.6329 111.345 80.6329 110.879C80.6329 110.413 80.8226 109.955 81.1526 109.625Z" fill="black"/>
<path d="M58.859 37.4815H69.0772C69.9761 37.4815 70.7051 38.2752 70.7051 39.2544C70.7051 40.2336 69.9761 41.0273 69.0772 41.0273H58.859C57.9601 41.0273 57.2312 40.2336 57.2312 39.2544C57.2312 38.2752 57.9601 37.4815 58.859 37.4815Z" fill="black"/>
<path d="M45.542 32.5175C42.2119 32.5177 39.5029 35.236 39.5029 38.577V103.216C39.5029 106.557 42.2119 109.275 45.542 109.275H72.6758V116.649C72.6759 117.575 73.4234 118.325 74.3457 118.325C75.2681 118.325 76.0164 117.575 76.0166 116.649V104.415H105.658V116.649C105.658 117.575 106.407 118.325 107.329 118.325C108.251 118.325 109 117.575 109 116.649V104.415C109 102.567 107.501 101.062 105.658 101.062H104.157V83.538C104.157 77.0355 102.653 70.51 99.8066 64.6678C97.0816 59.074 93.1062 54.072 88.2842 50.1493V38.577C88.2842 35.2359 85.5745 32.5175 82.2441 32.5175H45.542ZM70.3086 98.3778C71.3792 99.6901 72.6373 100.816 74.0283 101.727C73.2097 102.339 72.6768 103.315 72.6768 104.415V105.923H45.543C44.0552 105.922 42.8447 104.708 42.8447 103.216V98.3817H70.2422C70.2644 98.3817 70.2865 98.3787 70.3086 98.3778ZM88.2842 54.5819C96.2885 62.0567 100.816 72.4254 100.816 83.538V101.062H83.001C78.7777 101.062 74.7968 98.9999 72.3525 95.5448L65.3027 85.579C64.7537 84.8028 64.6859 83.8347 65.1211 82.9891C65.5565 82.1433 66.3831 81.6385 67.332 81.6385C67.8638 81.6386 68.3915 81.8139 68.8184 82.1327L79.3691 90.0184C80.3261 90.7334 81.5108 91.1268 82.7041 91.1268C85.7812 91.1266 88.2842 88.6151 88.2842 85.5282V54.5819ZM84.9434 85.5282C84.9434 86.767 83.9382 87.7753 82.7031 87.7753C82.2244 87.7752 81.7491 87.6168 81.3652 87.33L70.8145 79.4442C69.8146 78.6973 68.5772 78.286 67.3311 78.286C65.1414 78.2861 63.1573 79.4994 62.1523 81.451C61.1474 83.4028 61.3099 85.7281 62.5771 87.5194L67.8906 95.0292H42.8438V45.2616H84.9434V85.5282ZM82.2451 35.869C83.7331 35.869 84.9443 37.0843 84.9443 38.577V41.91H42.8447V38.577C42.8447 37.0843 44.0558 35.869 45.5439 35.869H82.2451Z" fill="black"/>
<path d="M74.7113 60.6777C74.1818 60.6777 73.7527 61.1204 73.7527 61.6663V62.662C73.7512 65.2594 72.7691 67.7007 70.9871 69.5362C69.2064 71.3703 66.8402 72.3802 64.3236 72.3802H64.3181C59.1188 72.3772 54.8913 68.0126 54.8943 62.6508C54.8957 60.0536 55.8779 57.6123 57.6599 55.7767C59.4406 53.9425 61.8068 52.9326 64.3234 52.9326H64.3289C65.6579 52.9334 66.9473 53.2166 68.1612 53.7744C68.6449 53.9967 69.2115 53.7725 69.427 53.2738C69.6425 52.7751 69.4252 52.1907 68.9415 51.9684C67.4807 51.2972 65.9292 50.9564 64.33 50.9554H64.3233C61.2953 50.9554 58.4476 52.1709 56.3049 54.3779C54.1607 56.5866 52.9788 59.5243 52.977 62.6498C52.9753 65.7752 54.1538 68.7143 56.2957 70.9256C58.4376 73.1369 61.2862 74.3557 64.317 74.3575H64.3236C67.3517 74.3575 70.1994 73.1421 72.342 70.935C74.4863 68.7263 75.6682 65.7886 75.6699 62.6626V61.6664C75.6699 61.1204 75.2408 60.6777 74.7113 60.6777Z" fill="black" stroke="black" stroke-width="2.40545"/>
<path d="M77.5065 50.5298C77.1194 50.1518 76.4918 50.1518 76.1047 50.5298L64.9907 61.3833L62.4693 58.921C62.0822 58.543 61.4546 58.543 61.0675 58.921C60.6804 59.2991 60.6804 59.9119 61.0675 60.29L64.2898 63.4367C64.4834 63.6257 64.7371 63.7202 64.9907 63.7202C65.2444 63.7202 65.4981 63.6257 65.6917 63.4367L77.5065 51.8988C77.8937 51.5207 77.8937 50.9078 77.5065 50.5298Z" fill="black" stroke="black" stroke-width="2.40545"/>
<path d="M62.7161 101.116C63.0456 100.786 63.503 100.596 63.9693 100.596C64.4356 100.596 64.893 100.786 65.2227 101.116C65.5525 101.445 65.7422 101.903 65.7422 102.369C65.7422 102.837 65.5527 103.293 65.2227 103.622C64.893 103.954 64.4356 104.142 63.9693 104.142C63.503 104.142 63.0456 103.954 62.7161 103.622C62.3863 103.293 62.1964 102.837 62.1964 102.369C62.1964 101.903 62.3861 101.445 62.7161 101.116Z" fill="black"/>
</svg>
