<svg width="94" height="59" viewBox="0 0 94 59" fill="none" xmlns="http://www.w3.org/2000/svg">
<path d="M5.16895 0.6875C2.36815 0.6875 0.0976562 3.05199 0.0976562 5.96875V13.8906H93.9166V5.96875C93.9166 3.052 91.6461 0.6875 88.8453 0.6875H5.16895Z" fill="white"/>
<path fill-rule="evenodd" clip-rule="evenodd" d="M93.9166 27.0938H0.0976562V53.5C0.0976562 56.4168 2.36815 58.7812 5.16895 58.7812H88.8453C91.6461 58.7812 93.9166 56.4168 93.9166 53.5V27.0938ZM7.70459 44.2578C7.70459 42.0702 9.40747 40.2969 11.5081 40.2969H14.0437C16.1443 40.2969 17.8472 42.0702 17.8472 44.2578C17.8472 46.4454 16.1443 48.2188 14.0437 48.2188H11.5081C9.40747 48.2188 7.70459 46.4454 7.70459 44.2578ZM26.7219 40.2969C24.6213 40.2969 22.9185 42.0702 22.9185 44.2578C22.9185 46.4454 24.6213 48.2188 26.7219 48.2188H36.8645C38.9651 48.2188 40.668 46.4454 40.668 44.2578C40.668 42.0702 38.9651 40.2969 36.8645 40.2969H26.7219Z" fill="white"/>
</svg>
