<svg width="182" height="162" viewBox="0 0 182 162" fill="none" xmlns="http://www.w3.org/2000/svg">
<path d="M62.0215 131.576C63.4906 130.107 65.0369 127.71 69.7534 127.71C74.4699 127.71 123.026 127.71 127.743 127.71C132.034 127.71 155.655 104.012 158.671 100.648C161.57 97.4009 174.444 78.0711 178 69.7206C175.758 66.7051 169.689 64.1922 162.537 65.8546C155.694 67.4397 151.673 72.3494 147.073 81.3185L129.367 90.5195" stroke="white" stroke-width="6.72327" stroke-miterlimit="10" stroke-linejoin="round"/>
<path d="M85.2153 104.515C85.2153 104.515 116.143 104.515 120.009 104.515C135.473 104.515 135.473 85.1848 120.009 85.1848C116.143 85.1848 106.478 85.1848 95.7307 85.1848C92.522 85.1848 86.4524 77.4529 81.3493 77.4529C79.0684 77.4529 67.2386 77.4529 62.0195 77.4529C56.8005 77.4529 50.3056 81.7054 46.5557 85.1848C40.7567 90.9838 31.0918 100.649 31.0918 100.649" stroke="white" stroke-width="6.72327" stroke-miterlimit="10" stroke-linejoin="round"/>
<path d="M23.3267 92.9186L4 112.245L50.3896 158.635L69.7163 139.308L23.3267 92.9186Z" stroke="white" stroke-width="6.72327" stroke-miterlimit="10" stroke-linejoin="round"/>
<path d="M23.3555 112.247L31.0874 119.979" stroke="white" stroke-width="6.72327" stroke-miterlimit="10" stroke-linejoin="round"/>
<path d="M166.393 65.8554V4H58.1465V77.4533" stroke="white" stroke-width="6.72327" stroke-miterlimit="10"/>
<path d="M127.734 4V19.4639H96.8066V4" stroke="white" stroke-width="6.72327" stroke-miterlimit="10"/>
<path d="M69.75 61.9893H77.4819" stroke="white" stroke-width="6.72327" stroke-miterlimit="10"/>
<path d="M81.3438 61.9893H89.0757" stroke="white" stroke-width="6.72327" stroke-miterlimit="10"/>
<path d="M92.9434 61.9893H100.675" stroke="white" stroke-width="6.72327" stroke-miterlimit="10"/>
</svg>
