<svg width="183" height="120" viewBox="0 0 183 120" fill="none" xmlns="http://www.w3.org/2000/svg">
<g clip-path="url(#clip0_124_3284)">
<path d="M118.131 30.0001H148.16C150.657 30.0001 153.001 31.2376 154.401 33.2626L167.298 56.2501H171.08C175.315 56.2501 178.644 59.0251 178.644 64.5376V90.0001C178.644 94.1251 175.24 97.5001 171.08 97.5001H163.515" stroke="white" stroke-width="6.15385" stroke-miterlimit="10"/>
<path d="M53.8398 3.74994H118.135V97.4999H61.4039" stroke="white" stroke-width="6.15385" stroke-miterlimit="10"/>
<path d="M31.1466 97.4999H12.2363" stroke="white" stroke-width="6.15385" stroke-miterlimit="10"/>
<path d="M163.518 101.287C163.518 109.537 156.748 116.25 148.352 116.25C139.993 116.25 133.186 109.537 133.186 101.287C133.186 93.0374 139.955 86.325 148.352 86.325C156.748 86.325 163.518 92.9999 163.518 101.287Z" stroke="white" stroke-width="6.15385" stroke-miterlimit="10"/>
<path d="M61.4805 101.287C61.4805 109.537 54.7106 116.25 46.3145 116.25C37.9183 116.25 31.1484 109.537 31.1484 101.287C31.1484 93.0374 37.9183 86.325 46.3145 86.325C54.7106 86.325 61.4805 92.9999 61.4805 101.287Z" stroke="white" stroke-width="6.15385" stroke-miterlimit="10"/>
<path d="M118.131 97.4999H133.259" stroke="white" stroke-width="6.15385" stroke-miterlimit="10"/>
<path d="M125.697 60H152.172V56.25L144.608 45" stroke="white" stroke-width="6.15385" stroke-miterlimit="10"/>
<path d="M0.886719 48.75H65.1816" stroke="white" stroke-width="6.15385" stroke-miterlimit="10"/>
<path d="M31.1484 26.25H87.8792" stroke="white" stroke-width="6.15385" stroke-miterlimit="10"/>
<path d="M23.5778 26.25H16.0137" stroke="white" stroke-width="6.15385" stroke-miterlimit="10"/>
<path d="M46.2692 3.74994H38.7051" stroke="white" stroke-width="6.15385" stroke-miterlimit="10"/>
</g>
<defs>
<clipPath id="clip0_124_3284">
<rect width="181.538" height="120" fill="white" transform="translate(0.886719)"/>
</clipPath>
</defs>
</svg>
