<svg width="44" height="45" viewBox="0 0 44 45" fill="none" xmlns="http://www.w3.org/2000/svg">
<path d="M12.8334 13.3334H9.54566C6.36411 13.3334 3.84621 16.0247 4.05784 19.1992L5.15784 35.6992C5.35045 38.5884 7.75011 40.8334 10.6457 40.8334H33.3546C36.2501 40.8334 38.6498 38.5884 38.8424 35.6992L39.9424 19.1992C40.154 16.0247 37.6361 13.3334 34.4546 13.3334H31.1667V17C31.1667 18.0126 30.3459 18.8334 29.3334 18.8334C28.3209 18.8334 27.5001 18.0126 27.5001 17V13.3334H16.5001V17C16.5001 18.0126 15.6793 18.8334 14.6667 18.8334C13.6542 18.8334 12.8334 18.0126 12.8334 17V13.3334Z" fill="#FCFCFD"/>
<path fill-rule="evenodd" clip-rule="evenodd" d="M12.8335 13.3333C12.8335 8.27068 16.9376 4.16663 22.0002 4.16663C27.0628 4.16663 31.1668 8.27068 31.1668 13.3333H27.5002C27.5002 10.2957 25.0377 7.83329 22.0002 7.83329C18.9626 7.83329 16.5002 10.2957 16.5002 13.3333H12.8335Z" fill="#FCFCFD"/>
</svg>
