<svg width="55" height="55" viewBox="0 0 55 55" fill="none" xmlns="http://www.w3.org/2000/svg">
<g filter="url(#filter0_d_137_2761)">
<circle cx="23.5" cy="23.5" r="23.5" transform="matrix(-1 0 0 1 50 3)" fill="#D9D9D9" fill-opacity="0.5" shape-rendering="crispEdges"/>
<circle cx="23.5" cy="23.5" r="23" transform="matrix(-1 0 0 1 50 3)" stroke="#E0E0E0" shape-rendering="crispEdges"/>
</g>
<path d="M33.0607 24.9393C33.6464 25.5251 33.6464 26.4749 33.0607 27.0607L23.5147 36.6066C22.9289 37.1924 21.9792 37.1924 21.3934 36.6066C20.8076 36.0208 20.8076 35.0711 21.3934 34.4853L29.8787 26L21.3934 17.5147C20.8076 16.9289 20.8076 15.9792 21.3934 15.3934C21.9792 14.8076 22.9289 14.8076 23.5147 15.3934L33.0607 24.9393ZM31 26L31 24.5L32 24.5L32 26L32 27.5L31 27.5L31 26Z" fill="#563E32"/>
<defs>
<filter id="filter0_d_137_2761" x="0" y="0" width="55" height="55" filterUnits="userSpaceOnUse" color-interpolation-filters="sRGB">
<feFlood flood-opacity="0" result="BackgroundImageFix"/>
<feColorMatrix in="SourceAlpha" type="matrix" values="0 0 0 0 0 0 0 0 0 0 0 0 0 0 0 0 0 0 127 0" result="hardAlpha"/>
<feOffset dx="1" dy="1"/>
<feGaussianBlur stdDeviation="2"/>
<feComposite in2="hardAlpha" operator="out"/>
<feColorMatrix type="matrix" values="0 0 0 0 0 0 0 0 0 0 0 0 0 0 0 0 0 0 0.07 0"/>
<feBlend mode="normal" in2="BackgroundImageFix" result="effect1_dropShadow_137_2761"/>
<feBlend mode="normal" in="SourceGraphic" in2="effect1_dropShadow_137_2761" result="shape"/>
</filter>
</defs>
</svg>
