<svg width="88" height="87" viewBox="0 0 88 87" fill="none" xmlns="http://www.w3.org/2000/svg">
<path d="M80.0316 22.1168H76.1738H70.1694C73.6835 19.9096 75.9911 16.2805 75.9911 12.1771C75.9911 5.46234 69.8342 0 62.2675 0C55.8468 0 48.2438 11.0033 44 18.115C39.7562 11.0045 32.1508 0 25.7313 0C18.1646 0 12.0077 5.46355 12.0077 12.1771C12.0077 16.2805 14.3141 19.9096 17.8294 22.1168H12.4155H7.96964C3.57581 22.1168 0 25.6914 0 30.084V42.7161C0 45.8454 1.81755 48.5499 4.44828 49.852V78.761C4.44828 83.156 8.02288 86.7306 12.4155 86.7306H76.1726C80.5676 86.7306 84.1422 83.156 84.1422 78.761V49.5313C86.4499 48.1349 88 45.6082 88 42.7185V30.0852C88.0012 25.6926 84.4266 22.1168 80.0316 22.1168ZM7.96964 43.424C7.57878 43.424 7.26053 43.107 7.26053 42.7173V30.084C7.26053 29.6943 7.57878 29.3773 7.96964 29.3773H40.3685V43.4228L7.96964 43.424ZM47.6303 29.3773H80.0316C80.4224 29.3773 80.7407 29.6943 80.7407 30.084V42.7161C80.7407 43.1058 80.4224 43.4228 80.0316 43.4228H47.6303V29.3773ZM62.2663 7.26053C65.7695 7.26053 68.7294 9.5125 68.7294 12.1771C68.7294 14.8417 65.7695 17.0937 62.2663 17.0937H53.2995C56.9721 11.7899 60.7452 7.57515 62.2663 7.26053ZM25.6309 7.25448C27.2282 7.57394 31.0206 11.7911 34.6981 17.0961H25.7313C22.2281 17.0961 19.2682 14.8441 19.2682 12.1795C19.2682 9.51492 22.2281 7.26053 25.6309 7.25448ZM11.7088 78.7634V50.6845H40.3697V79.4713H12.4155C12.0259 79.4725 11.7088 79.1543 11.7088 78.7634ZM76.1738 79.4725H47.6303V50.6845H76.8829V78.7622C76.8829 79.1543 76.5647 79.4725 76.1738 79.4725Z" fill="white"/>
</svg>
