<svg width="64" height="39" viewBox="0 0 64 39" fill="none" xmlns="http://www.w3.org/2000/svg">
<path d="M44.3408 0.484009C54.7898 0.48417 63.2598 9.05339 63.2598 19.6237C63.2596 30.1938 54.7896 38.7622 44.3408 38.7623C39.6574 38.7623 35.3723 37.0397 32.0684 34.1881C28.7644 37.0398 24.4794 38.7623 19.7959 38.7623C9.34697 38.7623 0.876153 30.1939 0.875977 19.6237C0.875977 9.05331 9.34686 0.484046 19.7959 0.484009C24.4791 0.484009 28.7645 2.20589 32.0684 5.05725C35.3722 2.20596 39.6577 0.484009 44.3408 0.484009Z" fill="#ED0006"/>
<path d="M44.3408 0.484009C54.7898 0.48417 63.2598 9.05339 63.2598 19.6237C63.2596 30.1938 54.7896 38.7622 44.3408 38.7623C39.6574 38.7623 35.3723 37.0397 32.0684 34.1881C36.1355 30.6777 38.7157 25.456 38.7158 19.6237C38.7158 13.7909 36.136 8.56776 32.0684 5.05725C35.3722 2.20596 39.6577 0.484009 44.3408 0.484009Z" fill="#F9A000"/>
<path d="M32.0684 5.05811C36.1357 8.56861 38.7158 13.791 38.7158 19.6235C38.7158 25.4559 36.1355 30.6775 32.0684 34.188C28.0011 30.6775 25.421 25.456 25.4209 19.6235C25.4209 13.7909 28.0009 8.56861 32.0684 5.05811Z" fill="#FF5E00"/>
</svg>
