<svg width="97" height="59" viewBox="0 0 97 59" fill="none" xmlns="http://www.w3.org/2000/svg">
<rect x="2.71094" y="3.32812" width="91.0733" height="52.8125" rx="2.64062" fill="white" stroke="#6E768A" stroke-width="5.28125"/>
<path d="M17.8193 7.28906C17.8193 10.935 14.4136 13.8906 10.2124 13.8906V45.5781C14.4136 45.5781 17.8193 48.5337 17.8193 52.1797C17.8193 55.8256 14.4136 58.7812 10.2124 58.7812C7.72369 58.7812 5.51412 57.7441 4.1263 56.1406H2.60547V3.32812H4.1263C5.51412 1.72468 7.72369 0.6875 10.2124 0.6875C14.4136 0.6875 17.8193 3.64312 17.8193 7.28906Z" fill="#6E768A"/>
<path d="M86.2817 13.8906C82.0805 13.8906 78.6748 10.935 78.6748 7.28906C78.6748 3.64312 82.0805 0.6875 86.2817 0.6875C88.7705 0.6875 90.98 1.72468 92.3679 3.32812H93.8887V56.1406H92.3679C90.98 57.7441 88.7705 58.7812 86.2817 58.7812C82.0805 58.7812 78.6748 55.8256 78.6748 52.1797C78.6748 48.5337 82.0805 45.5781 86.2817 45.5781V13.8906Z" fill="#6E768A"/>
<ellipse cx="48.2481" cy="29.7344" rx="15.2139" ry="15.8438" fill="#6E768A"/>
<g clip-path="url(#clip0_49_2894)">
<path d="M48.6491 28.5241C46.2508 27.8749 45.4795 27.2038 45.4795 26.1585C45.4795 24.9592 46.5466 24.123 48.3321 24.123C50.2127 24.123 50.9101 25.0583 50.9734 26.4336H53.3083C53.2344 24.5411 52.125 22.8027 49.9169 22.2416V19.832H46.7474V22.2086C44.6977 22.6707 43.0495 24.057 43.0495 26.1805C43.0495 28.7221 45.0675 29.9874 48.0152 30.7246C50.6565 31.3848 51.1847 32.353 51.1847 33.3762C51.1847 34.1354 50.6671 35.3457 48.3321 35.3457C46.1557 35.3457 45.2999 34.3335 45.1837 33.0352H42.8594C42.9862 35.4447 44.7188 36.798 46.7474 37.2492V39.6367H49.9169V37.2712C51.9771 36.8641 53.6147 35.6208 53.6147 33.3652C53.6147 30.2405 51.0474 29.1732 48.6491 28.5241Z" fill="white"/>
</g>
<defs>
<clipPath id="clip0_49_2894">
<rect width="25.3565" height="26.4062" fill="white" transform="translate(35.5693 16.5312)"/>
</clipPath>
</defs>
</svg>
