<svg width="32" height="38" viewBox="0 0 32 38" fill="none" xmlns="http://www.w3.org/2000/svg">
<path fill-rule="evenodd" clip-rule="evenodd" d="M9.71308 36.15L10.3431 32.1322L8.93968 32.0993H2.23828L6.89552 2.44996C6.91003 2.36018 6.95693 2.27684 7.02543 2.21755C7.09427 2.15826 7.182 2.12573 7.27378 2.12573H18.5734C22.3249 2.12573 24.9137 2.90938 26.2651 4.45633C26.8988 5.18204 27.3024 5.94061 27.4978 6.77508C27.7026 7.65087 27.706 8.69708 27.5062 9.97334L27.4917 10.0662V10.884L28.1254 11.2445C28.6589 11.5288 29.083 11.854 29.4083 12.2264C29.9502 12.847 30.3008 13.6358 30.449 14.5705C30.6021 15.532 30.5515 16.6765 30.3008 17.9721C30.0116 19.4621 29.5443 20.76 28.913 21.8218C28.3326 22.8003 27.5929 23.612 26.7146 24.2409C25.8761 24.8385 24.88 25.2922 23.7536 25.5825C22.662 25.8678 21.4176 26.0118 20.0527 26.0118H19.1733C18.5447 26.0118 17.9339 26.2391 17.4544 26.6467C16.9736 27.0627 16.6557 27.6312 16.5582 28.2529L16.4917 28.6148L15.3786 35.6967L15.3283 35.9565C15.3148 36.0389 15.2918 36.0799 15.2581 36.1076C15.2281 36.1331 15.1849 36.15 15.1427 36.15H9.71308" fill="#28356A"/>
<path fill-rule="evenodd" clip-rule="evenodd" d="M28.726 10.1606C28.6926 10.3771 28.6538 10.5984 28.6106 10.8257C27.1205 18.5076 22.0223 21.1615 15.5112 21.1615H12.1959C11.3996 21.1615 10.7284 21.7418 10.6046 22.5305L8.42644 36.4027C8.34579 36.9207 8.74329 37.3872 9.26361 37.3872H15.1437C15.8398 37.3872 16.4313 36.8794 16.541 36.1899L16.5987 35.8901L17.7058 28.8359L17.777 28.449C17.8853 27.7572 18.4782 27.249 19.1743 27.249H20.0537C25.7505 27.249 30.2104 24.9269 31.5139 18.2064C32.0582 15.3992 31.7764 13.055 30.3356 11.4064C29.8996 10.9094 29.3587 10.4967 28.726 10.1606" fill="#298FC2"/>
<path fill-rule="evenodd" clip-rule="evenodd" d="M27.1654 9.53663C26.9376 9.46989 26.7028 9.40958 26.4618 9.35503C26.2196 9.30184 25.9716 9.25475 25.7161 9.21342C24.8223 9.06841 23.8427 8.99963 22.7936 8.99963H13.937C13.7187 8.99963 13.5115 9.0491 13.3263 9.13854C12.9177 9.33572 12.6143 9.72399 12.5407 10.1993L10.6565 22.1813L10.6025 22.5306C10.7264 21.7419 11.3975 21.1615 12.1939 21.1615H15.5091C22.0202 21.1615 27.1185 18.5063 28.6086 10.8258C28.6531 10.5984 28.6906 10.3772 28.724 10.1607C28.3471 9.95979 27.9388 9.78802 27.4991 9.64166C27.3905 9.60541 27.2784 9.57051 27.1654 9.53663" fill="#22284F"/>
<path fill-rule="evenodd" clip-rule="evenodd" d="M12.5415 10.1994C12.6151 9.72411 12.9185 9.33584 13.3271 9.14002C13.5137 9.05024 13.7195 9.00077 13.9378 9.00077H22.7944C23.8435 9.00077 24.8231 9.06989 25.7169 9.21489C25.9724 9.25589 26.2204 9.30332 26.4626 9.35651C26.7036 9.41072 26.9384 9.47136 27.1662 9.53777C27.2792 9.57165 27.3913 9.60688 27.5009 9.64178C27.9406 9.78814 28.3492 9.96127 28.7261 10.1608C29.1695 7.32202 28.7224 5.38917 27.1939 3.63893C25.5084 1.71184 22.4668 0.887207 18.5745 0.887207H7.27456C6.47957 0.887207 5.80133 1.46757 5.67851 2.25765L0.972006 32.2119C0.879212 32.8045 1.33441 33.3391 1.92964 33.3391H8.90571L12.5415 10.1994" fill="#28356A"/>
</svg>
