<svg width="118" height="115" viewBox="0 0 118 115" fill="none" xmlns="http://www.w3.org/2000/svg">
<path d="M47.3897 23.2268L45.8332 32.0719C45.6108 33.3358 46.1438 34.6134 47.2083 35.3672C47.8105 35.7937 48.5238 36.0107 49.2406 36.0107C49.7909 36.0107 50.3431 35.8829 50.849 35.6237L58.9993 31.4475L67.1499 35.6237C67.6555 35.8829 68.208 36.0107 68.7583 36.0107H68.7675C70.6748 36.0084 72.2201 34.5009 72.2201 32.6416C72.2201 32.3828 72.1901 32.131 72.1337 31.8889L70.6092 23.2268L77.203 16.9627C78.1451 16.0676 78.4843 14.7287 78.0778 13.5089C77.6713 12.2893 76.5895 11.4003 75.2873 11.2159L66.175 9.92548L62.0995 1.87818C61.5169 0.728183 60.3153 0 58.9993 0C57.6834 0 56.4817 0.728183 55.8994 1.87796L51.8243 9.92548L42.7118 11.2159C41.4097 11.4003 40.3279 12.2893 39.9213 13.5089C39.5145 14.7285 39.8538 16.0674 40.7959 16.9627L47.3897 23.2268ZM54.6171 16.339C55.7431 16.1795 56.7164 15.4902 57.2199 14.496L58.9993 10.9818L60.779 14.496C61.2825 15.4904 62.256 16.1797 63.3818 16.339L67.361 16.9025L64.4816 19.638C63.6669 20.412 63.2952 21.5272 63.4874 22.6202L64.1672 26.4825L60.6082 24.6589C60.1046 24.4009 59.552 24.2719 58.9996 24.2719C58.4471 24.2719 57.8945 24.4009 57.3909 24.6589L53.8321 26.4825L54.5117 22.6202C54.7039 21.5272 54.3322 20.412 53.5175 19.638L50.6381 16.9025L54.6171 16.339Z" fill="#FFD953"/>
<path d="M117.831 26.9855C117.425 25.7658 116.343 24.8768 115.041 24.6924L105.929 23.402L101.853 15.3545C101.271 14.2045 100.069 13.4766 98.7533 13.4766C97.4373 13.4766 96.2357 14.2047 95.6533 15.3547L91.5782 23.402L82.4657 24.6924C81.1636 24.8768 80.0818 25.7658 79.6752 26.9855C79.2685 28.2051 79.6077 29.544 80.5498 30.4393L87.1436 36.7034L85.5871 45.5485C85.3647 46.8124 85.8978 48.09 86.9623 48.8437C87.5645 49.2703 88.2778 49.4873 88.9945 49.4873C89.5448 49.4873 90.097 49.3594 90.6029 49.1002L98.753 44.9241L106.904 49.1002C107.412 49.3608 107.971 49.4798 108.521 49.4873C110.429 49.485 111.974 47.9774 111.974 46.1181C111.974 45.8594 111.944 45.6076 111.887 45.3654L110.363 36.7034L116.957 30.4393C117.899 29.5442 118.238 28.2053 117.831 26.9855ZM104.235 33.1146C103.421 33.8886 103.049 35.0038 103.241 36.0967L103.921 39.9591L100.362 38.1355C99.8583 37.8774 99.3057 37.7485 98.7533 37.7485C98.2008 37.7485 97.6482 37.8774 97.1446 38.1355L93.5858 39.9591L94.2654 36.0967C94.4579 35.0038 94.0859 33.8886 93.2712 33.1146L90.3918 30.3791L94.3712 29.8155C95.497 29.6561 96.4705 28.9667 96.9741 27.9724L98.7535 24.4584L100.533 27.9726C101.036 28.967 102.01 29.6563 103.136 29.8158L107.115 30.3793L104.235 33.1146Z" fill="#FFD953"/>
<path d="M30.8568 36.7034L37.4505 30.4393C38.3927 29.5442 38.7319 28.2053 38.3252 26.9855C37.9186 25.7658 36.8368 24.8768 35.5347 24.6924L26.4224 23.402L22.3471 15.3547C21.7647 14.2047 20.5629 13.4766 19.2471 13.4766C17.9314 13.4766 16.7296 14.2047 16.1472 15.3545L12.0721 23.402L2.95982 24.6924C1.6577 24.8768 0.575903 25.7658 0.169365 26.9855C-0.237403 28.2051 0.10184 29.544 1.04397 30.4393L7.63777 36.7034L6.08122 45.5485C5.85882 46.8124 6.39188 48.09 7.45639 48.8437C8.0586 49.2703 8.77188 49.4873 9.48862 49.4873C10.039 49.4873 10.5912 49.3594 11.097 49.1002L19.2471 44.9241L27.3975 49.1002C27.9066 49.3612 28.4572 49.4828 29.0163 49.4873C30.9229 49.4843 32.4677 47.977 32.4677 46.1181C32.4677 45.8594 32.4377 45.6074 32.381 45.3654L30.8568 36.7034ZM24.7294 33.1146C23.9147 33.8886 23.543 35.0038 23.7352 36.0967L24.4151 39.9591L20.856 38.1355C20.3524 37.8774 19.7998 37.7485 19.2474 37.7485C18.6947 37.7485 18.1423 37.8774 17.6387 38.1355L14.0799 39.9591L14.7596 36.0967C14.952 35.0038 14.58 33.8886 13.7653 33.1146L10.8859 30.3791L14.8651 29.8155C15.9912 29.6561 16.9644 28.9667 17.468 27.9724L19.2474 24.4582L21.027 27.9724C21.5306 28.9667 22.5041 29.6561 23.6299 29.8155L27.6091 30.3791L24.7294 33.1146Z" fill="#FFD953"/>
<path d="M80.6631 58.8843H69.1399V51.6968C69.1399 46.1235 64.4875 41.5894 58.769 41.5894C53.0506 41.5894 48.3982 46.1235 48.3982 51.6968V70.1147H47.2459C41.5274 70.1147 36.875 74.6489 36.875 80.2221V86.9238C36.875 89.6847 38.329 93.1055 40.332 95.0576L43.7889 98.4267V111.631C43.7889 113.491 45.3367 115 47.2459 115H87.577C89.4862 115 91.034 113.491 91.034 111.631V68.9917C91.034 63.4184 86.3816 58.8843 80.6631 58.8843ZM43.7889 80.2221C43.7889 78.3644 45.3397 76.853 47.2459 76.853H51.8551C53.7643 76.853 55.3121 75.3445 55.3121 73.4839V51.6968C55.3121 49.839 56.8629 48.3276 58.769 48.3276C60.6752 48.3276 62.226 49.839 62.226 51.6968V62.2534C62.226 64.1141 63.7738 65.6225 65.683 65.6225H80.6631C82.5693 65.6225 84.12 67.1339 84.12 68.9917V93.6621H48.6777L45.2208 90.2929C44.525 89.6148 43.7889 87.8831 43.7889 86.9238V80.2221ZM50.7028 108.262V100.4H84.12V108.262H50.7028Z" fill="#474340"/>
</svg>
