<svg width="33" height="29" viewBox="0 0 33 29" fill="none" xmlns="http://www.w3.org/2000/svg">
<path d="M16.3747 28.1858L14.0725 26.1615C5.92542 19.0065 0.546795 14.283 0.546795 8.49154C0.535644 7.38159 0.753052 6.28063 1.1863 5.25307C1.61955 4.2255 2.25994 3.29197 3.07 2.50708C3.88007 1.72219 4.84354 1.1017 5.90406 0.681916C6.96459 0.262133 8.10086 0.051481 9.24641 0.0622852C10.6017 0.0710906 11.9393 0.361381 13.169 0.913579C14.3986 1.46578 15.4918 2.26704 16.3747 3.26334C17.2554 2.26874 18.3457 1.46844 19.5723 0.916283C20.7989 0.36413 22.1333 0.0729324 23.4858 0.0622852C24.6314 0.051481 25.7676 0.262133 26.8282 0.681916C27.8887 1.1017 28.8521 1.72219 29.6622 2.50708C30.4723 3.29197 31.1127 4.2255 31.5459 5.25307C31.9792 6.28063 32.1966 7.38159 32.1854 8.49154C32.1854 14.283 26.8068 19.0065 18.6597 26.1782L16.3747 28.1858Z" fill="#FF6E6E"/>
</svg>
