<svg width="25" height="26" viewBox="0 0 25 26" fill="none" xmlns="http://www.w3.org/2000/svg">
<path d="M11.2471 0.395508C14.2577 0.395508 17.0869 1.57249 19.207 3.70898C23.2333 7.76672 23.6014 14.2072 20.0986 18.7295L24.585 23.2207C25.1383 23.7784 25.1384 24.6759 24.585 25.2021C24.3089 25.4501 23.97 25.6045 23.6016 25.6045C23.2333 25.6044 22.8951 25.4801 22.6191 25.2021L18.1621 20.6484C16.1958 22.2283 13.7369 23.0645 11.2471 23.0645C8.23662 23.0644 5.40809 21.8873 3.28809 19.751C1.16805 17.6146 0 14.7649 0 11.7295C0.000109323 8.69574 1.16809 5.84538 3.28809 3.70898C5.40798 1.57265 8.23512 0.395602 11.2471 0.395508ZM11.2471 3.18164C9.00334 3.18171 6.85172 4.08026 5.25391 5.69043C3.65499 7.30049 2.76476 9.43837 2.76465 11.7295C2.76465 13.9906 3.65608 16.1593 5.25391 17.7695C6.85166 19.3809 9.00334 20.2782 11.2471 20.2783C13.4908 20.2783 15.6424 19.3797 17.2402 17.7695C18.8393 16.1594 19.7305 14.0208 19.7305 11.7295C19.7304 9.43843 18.838 7.30178 17.2402 5.69043C15.6424 4.07903 13.5208 3.18164 11.2471 3.18164Z" fill="black"/>
</svg>
