<svg width="26" height="30" viewBox="0 0 26 30" fill="none" xmlns="http://www.w3.org/2000/svg">
<path d="M7.15001 7.02273V6.35795C7.15001 3.05759 9.7708 0.375 13 0.375C16.2305 0.375 18.85 3.05543 18.85 6.35795V7.02273H20.9476C22.6943 7.02273 24.2141 8.42291 24.3914 10.2026L25.983 26.1755C26.1702 28.0537 24.785 29.625 22.9419 29.625H3.05818C1.21126 29.625 -0.170621 28.0592 0.0170785 26.1755L1.60871 10.2026C1.78555 8.428 3.30892 7.02273 5.05256 7.02273H7.15001ZM7.15001 9.68182H5.05256C4.642 9.68182 4.23684 10.0556 4.19532 10.4722L2.60369 26.4451C2.57209 26.7622 2.7519 26.9659 3.05818 26.9659H22.9419C23.2437 26.9659 23.4276 26.7573 23.3964 26.4451L21.8048 10.4722C21.7629 10.0512 21.3619 9.68182 20.9476 9.68182H18.85V12.3409C18.85 13.0752 18.268 13.6705 17.55 13.6705C16.8321 13.6705 16.25 13.0752 16.25 12.3409V9.68182H9.75002V12.3409C9.75002 13.0752 9.16798 13.6705 8.45001 13.6705C7.73204 13.6705 7.15001 13.0752 7.15001 12.3409V9.68182ZM16.25 7.02273V5.79545C16.25 4.27121 14.7947 3.03409 13 3.03409C11.206 3.03409 9.75002 4.27221 9.75002 5.79545V7.02273H16.25Z" fill="black"/>
</svg>
