<svg width="69" height="22" viewBox="0 0 69 22" fill="none" xmlns="http://www.w3.org/2000/svg">
<path fill-rule="evenodd" clip-rule="evenodd" d="M17.6834 21.5477H11.8737L7.51717 4.92719C7.31039 4.16265 6.87133 3.48675 6.2255 3.16819C4.61374 2.36764 2.8377 1.73052 0.900193 1.40919V0.769299H10.2591C11.5508 0.769299 12.5196 1.73052 12.681 2.84686L14.9414 14.8358L20.7483 0.769299H26.3965L17.6834 21.5477ZM29.6261 21.5477H24.1394L28.6574 0.769299H34.1441L29.6261 21.5477ZM41.2412 6.5255C41.4027 5.40639 42.3714 4.7665 43.5016 4.7665C45.2777 4.60584 47.2123 4.92717 48.8269 5.72495L49.7957 1.25127C48.1811 0.611377 46.4051 0.290047 44.7933 0.290047C39.468 0.290047 35.593 3.16816 35.593 7.16262C35.593 10.2014 38.3378 11.797 40.2753 12.7582C42.3714 13.7166 43.1787 14.3565 43.0173 15.315C43.0173 16.7526 41.4027 17.3925 39.7909 17.3925C37.8534 17.3925 35.9159 16.9133 34.1427 16.1128L33.1739 20.5892C35.1114 21.387 37.2076 21.7083 39.1451 21.7083C45.1162 21.8662 48.8269 18.9909 48.8269 14.6751C48.8269 9.24018 41.2412 8.92162 41.2412 6.5255V6.5255ZM68.0304 21.5477L63.6739 0.769299H58.9944C58.0257 0.769299 57.0569 1.40919 56.734 2.36764L48.6667 21.5477H54.3149L55.4423 18.5117H62.3822L63.028 21.5477H68.0304ZM59.801 6.36479L61.4127 14.1958H56.8947L59.801 6.36479Z" fill="#172B85"/>
</svg>
