<svg width="29" height="25" viewBox="0 0 29 25" fill="none" xmlns="http://www.w3.org/2000/svg">
<path d="M1.58331 8.77078C1.58334 7.33342 2.01937 5.92987 2.83382 4.74552C3.64827 3.56116 4.80281 2.65172 6.14497 2.1373C7.48713 1.62288 8.95377 1.52769 10.3512 1.8643C11.7486 2.20091 13.011 2.95348 13.9717 4.02262C14.0394 4.09497 14.1212 4.15265 14.212 4.19208C14.3029 4.23152 14.4009 4.25187 14.5 4.25187C14.599 4.25187 14.697 4.23152 14.7879 4.19208C14.8788 4.15265 14.9606 4.09497 15.0283 4.02262C15.986 2.94653 17.2487 2.18763 18.6483 1.84694C20.048 1.50624 21.5182 1.5999 22.8634 2.11545C24.2085 2.631 25.3647 3.54399 26.1781 4.73291C26.9915 5.92182 27.4235 7.33027 27.4166 8.77078C27.4166 11.7287 25.4791 13.9375 23.5416 15.875L16.4478 22.7376C16.2071 23.014 15.9104 23.2361 15.5773 23.389C15.2442 23.5419 14.8824 23.6222 14.5159 23.6245C14.1493 23.6268 13.7865 23.5511 13.4515 23.4024C13.1165 23.2537 12.817 23.0355 12.5728 22.7621L5.45831 15.875C3.52081 13.9375 1.58331 11.7416 1.58331 8.77078Z" stroke="black" stroke-width="2.58333" stroke-linecap="round" stroke-linejoin="round"/>
</svg>
